<svg xmlns="http://www.w3.org/2000/svg" xmlns:xlink="http://www.w3.org/1999/xlink" width="1916.822" height="973.852" viewBox="0 0 1916.822 973.852">
  <defs>
    <clipPath id="clip-path">
      <path id="Path_21896" data-name="Path 21896" d="M-292-3156v973.852H1624.822V-3156Z" transform="translate(292 3156)" fill="none" stroke="#707070" stroke-width="1"/>
    </clipPath>
    <linearGradient id="linear-gradient" x1="-0.244" y1="-0.109" x2="0.746" y2="0.823" gradientUnits="objectBoundingBox">
      <stop offset="0" stop-color="#34b3ff"/>
      <stop offset="1" stop-color="#0b42f5"/>
    </linearGradient>
    <linearGradient id="linear-gradient-2" x1="0.173" y1="0.285" x2="0.954" y2="0.983" gradientUnits="objectBoundingBox">
      <stop offset="0" stop-color="#0b42f5"/>
      <stop offset="1" stop-color="#34b3ff"/>
    </linearGradient>
    <linearGradient id="linear-gradient-3" x1="0.262" y1="-1.478" x2="0.389" y2="2.141" gradientUnits="objectBoundingBox">
      <stop offset="0" stop-color="#34b3ff"/>
      <stop offset="1" stop-color="#fbeed6"/>
    </linearGradient>
    <linearGradient id="linear-gradient-4" x1="0.804" y1="0.057" x2="0.21" y2="1.171" xlink:href="#linear-gradient-2"/>
    <linearGradient id="linear-gradient-5" x1="0.661" y1="0.108" x2="0.622" y2="0.844" xlink:href="#linear-gradient-2"/>
    <linearGradient id="linear-gradient-6" x1="0.939" y1="0.95" x2="-0.028" y2="-0.021" xlink:href="#linear-gradient"/>
    <linearGradient id="linear-gradient-7" x1="0.426" y1="-0.256" x2="0.455" y2="1.207" xlink:href="#linear-gradient"/>
    <linearGradient id="linear-gradient-8" x1="1.05" y1="1.058" x2="-0.173" y2="-0.303" gradientUnits="objectBoundingBox">
      <stop offset="0" stop-color="#ff5e00"/>
      <stop offset="1" stop-color="#ffb41c"/>
      <stop offset="1"/>
    </linearGradient>
    <linearGradient id="linear-gradient-9" y1="-0.016" x2="1.059" y2="1.188" gradientUnits="objectBoundingBox">
      <stop offset="0" stop-color="#ff5e00"/>
      <stop offset="1" stop-color="#ffb41c"/>
    </linearGradient>
    <linearGradient id="linear-gradient-10" y1="0.559" x2="2.517" y2="0.559" gradientUnits="objectBoundingBox">
      <stop offset="0" stop-color="#ffb41c"/>
      <stop offset="1" stop-color="#ff5e00"/>
    </linearGradient>
    <linearGradient id="linear-gradient-13" x1="0.565" y1="-7.682" x2="0.157" y2="1.35" gradientUnits="objectBoundingBox">
      <stop offset="0" stop-color="#ff2c00"/>
      <stop offset="1" stop-color="#ffb41c"/>
    </linearGradient>
    <linearGradient id="linear-gradient-17" x1="0.5" x2="0.5" y2="1" gradientUnits="objectBoundingBox">
      <stop offset="0" stop-color="#a9caf9"/>
      <stop offset="1" stop-color="#b2bef2"/>
    </linearGradient>
    <linearGradient id="linear-gradient-18" x1="0.5" y1="-0.67" x2="0.5" y2="1.111" gradientUnits="objectBoundingBox">
      <stop offset="0" stop-color="#1745dc"/>
      <stop offset="1" stop-color="#743fe1"/>
    </linearGradient>
    <filter id="Time" x="1765.355" y="189.081" width="27.009" height="27.009" filterUnits="userSpaceOnUse">
      <feOffset dy="3" input="SourceAlpha"/>
      <feGaussianBlur stdDeviation="3" result="blur"/>
      <feFlood flood-opacity="0.161"/>
      <feComposite operator="in" in2="blur"/>
      <feComposite in="SourceGraphic"/>
    </filter>
    <linearGradient id="linear-gradient-19" x1="0.509" y1="0.917" x2="0.521" y2="-0.349" gradientUnits="objectBoundingBox">
      <stop offset="0" stop-color="#fff" stop-opacity="0"/>
      <stop offset="1" stop-color="#f5d4f1"/>
    </linearGradient>
    <linearGradient id="linear-gradient-20" x1="0.509" y1="0.917" x2="0.521" y2="-0.349" gradientUnits="objectBoundingBox">
      <stop offset="0" stop-color="#fff" stop-opacity="0"/>
      <stop offset="1" stop-color="#f5ead4"/>
    </linearGradient>
    <linearGradient id="linear-gradient-22" x1="0.491" y1="0.917" x2="0.479" y2="-0.349" xlink:href="#linear-gradient-20"/>
    <linearGradient id="linear-gradient-23" x1="0.5" y1="0" x2="0" y2="1.39" xlink:href="#linear-gradient-2"/>
    <linearGradient id="linear-gradient-24" x1="0.5" y1="0.755" x2="0.5" y2="1" gradientUnits="objectBoundingBox">
      <stop offset="0" stop-color="#34b3ff"/>
      <stop offset="1" stop-color="#fff"/>
    </linearGradient>
    <linearGradient id="linear-gradient-25" x1="0.5" y1="-0.087" x2="0.5" y2="1.844" xlink:href="#linear-gradient-2"/>
    <linearGradient id="linear-gradient-27" x1="0.163" y1="-0.336" x2="0.922" y2="0.765" gradientUnits="objectBoundingBox">
      <stop offset="0" stop-color="#f70f47"/>
      <stop offset="1" stop-color="#9e005d"/>
    </linearGradient>
    <clipPath id="clip-path-2">
      <path id="Path_258" data-name="Path 258" d="M-41.163,30.689C49.337-89.311,362,0,362,0V480H0s39.935-79.6,30.9-200.378C23.84,185.316-80.893,83.369-41.163,30.689Z" transform="translate(-1681 -7007)" fill="#fff" stroke="#707070" stroke-width="1"/>
    </clipPath>
    <linearGradient id="linear-gradient-28" x1="0.163" y1="-0.336" x2="0.922" y2="0.765" gradientUnits="objectBoundingBox">
      <stop offset="0" stop-color="#f70f47"/>
      <stop offset="1" stop-color="#64013b"/>
    </linearGradient>
  </defs>
  <g id="Mask_Group_15" data-name="Mask Group 15" clip-path="url(#clip-path)">
    <g id="Group_441" data-name="Group 441">
      <path id="Path_279" data-name="Path 279" d="M56.812-17.822s178.876-40.545,239.313,0-11.768,85.888,2.435,162.181,54.986,93.042,54.377,142.993-25.435,56.812-56.812,56.812H56.812A56.812,56.812,0,0,1,0,287.352V38.989A56.812,56.812,0,0,1,56.812-17.822Z" transform="translate(-131.606 -45.208) rotate(30)" fill="#ecf0fc" opacity="0.5"/>
      <g id="Illustration" transform="translate(0 -60)">
        <path id="Path_85" data-name="Path 85" d="M-109.426,280.974C-103.806,110.5,152.669.675,241.9,45.037c126.414,62.843,116.507,133.682,294.523,7.956,60.432-42.687,141.8-65.344,217.3-46.035,54.3,13.882,102.012,49.53,124.159,96.4,12.315,26.076,16.712,54.582,26.147,81.62s25.578,54.134,53.257,67.515c26.657,12.884,59.217,10.7,88.467,3.786,70.338-16.643,131.172-58.985,203.389-69.945,60.868-9.237,133.561,1.494,183.243,35.751,65.026,44.835,88.036,122.88,101.724,192.225,16.052,81.329,13.336,165.335-4.54,246.221-22.911,103.619-70.26,202.137-131.975,291.911-54.941,79.92,27.021,73.577-56.416,129.9-131.955,89.084-506.5,237.1-627.724,97.508-145.94-168.06,50.293-307.663-159.237-295.124-125.384,7.5-330.849-52.161-262.756-282.379S-117.524,526.484-109.426,280.974Z" transform="translate(922.474 -444.837) rotate(15)" fill="url(#linear-gradient)"/>
        <path id="Path_90" data-name="Path 90" d="M.076,399.745C5.659,244.4,420.88.615,509.521,41.039,635.1,98.3,625.258,162.855,802.1,48.289c60.032-38.9,140.865-59.544,215.859-41.948,53.937,12.649,101.337,45.133,123.338,87.84,12.234,23.761,63.1.686,72.473,25.325s17.52,79.177,45.016,91.37c26.481,11.74,20.216,28.957,49.272,22.652,69.874-15.165,130.3-53.75,202.045-63.736,60.466-8.417,132.678,1.362,182.032,32.577,64.6,40.856,87.454,111.972,101.052,175.162,15.946,74.11,13.248,150.659-4.51,224.365-22.76,94.422-69.8,184.194-131.1,266-54.578,72.826-121.35,140.358-204.234,191.681-131.083,81.177-354.962,142.743-475.381,15.54C832.979,921.975,1027.914,794.763,819.77,806.19c-124.555,6.839-328.662-47.531-261.018-257.313S-7.969,623.461.076,399.745Z" transform="translate(908.805 -561.428) rotate(22)" fill="url(#linear-gradient-2)"/>
        <g id="Group_176" data-name="Group 176" transform="translate(-14.446 26.872)">
          <path id="Path_90-2" data-name="Path 90" d="M18.978,0C36.8-.3,37.516,19.389,37.516,19.389H0S1.159.308,18.978,0Z" transform="matrix(-0.695, 0.719, -0.719, -0.695, 1304.359, 651.069)" fill="url(#linear-gradient-3)"/>
          <g id="Group_173" data-name="Group 173" transform="translate(1181.821 598.054)">
            <rect id="Rectangle_14" data-name="Rectangle 14" width="9.199" height="119.929" rx="4.6" transform="matrix(0.985, -0.174, 0.174, 0.985, 11.635, 100.362)" fill="url(#linear-gradient-4)"/>
            <rect id="Rectangle_15" data-name="Rectangle 15" width="9.199" height="114.788" rx="4.6" transform="translate(11.519 130.868) rotate(-135)" fill="url(#linear-gradient-5)"/>
            <path id="Path_89" data-name="Path 89" d="M39.557.007C76.7-.568,78.193,36.573,78.193,36.573H0S2.415.582,39.557.007Z" transform="matrix(0.695, -0.719, 0.719, 0.695, 41.792, 56.247)" fill="url(#linear-gradient-6)"/>
            <path id="Path_88" data-name="Path 88" d="M39.557,2.2c37.142-.408,38.637,25.95,38.637,25.95H0S2.415,2.607,39.557,2.2Z" transform="translate(0 210.594)" fill="url(#linear-gradient-7)"/>
          </g>
        </g>
        <ellipse id="Ellipse_20" data-name="Ellipse 20" cx="30.712" cy="30.712" rx="30.712" ry="30.712" transform="translate(1166.96 524.579)" opacity="0.12"/>
        <g id="Group_174" data-name="Group 174" transform="translate(-93 -15)">
          <rect id="Rectangle_15-2" data-name="Rectangle 15" width="171.143" height="230.519" rx="3" transform="translate(1229.896 245.469)" fill="url(#linear-gradient-8)"/>
          <rect id="Rectangle_90" data-name="Rectangle 90" width="171.143" height="230.519" rx="3" transform="translate(1245.523 227.888)" fill="url(#linear-gradient-9)"/>
          <g id="Group_5" data-name="Group 5" transform="translate(1425.978 452.178)">
            <path id="Path_27" data-name="Path 27" d="M0,.249,4.957,2.091,9.976,0,7.059,3.734l3.3,5.218L5.01,6.7.375,9.6,2.888,4.739Z" transform="matrix(0.616, 0.788, -0.788, 0.616, -242.435, 23.869)" fill="#fff"/>
            <path id="Path_29" data-name="Path 29" d="M0,.145,2.884,1.217,5.8,0l-1.7,2.173,1.92,3.036L2.915,3.9.218,5.586,1.681,2.758Z" transform="matrix(0.616, 0.788, -0.788, 0.616, -241.106, 0)" fill="#fff"/>
            <path id="Path_28" data-name="Path 28" d="M0,.394,7.849,3.312,15.8,0,11.178,5.912,16.4,14.175l-8.47-3.563L.594,15.2,4.573,7.5Z" transform="matrix(0.616, 0.788, -0.788, 0.616, -231.048, 5.569)" fill="#fff"/>
          </g>
          <g id="Group_6" data-name="Group 6" transform="translate(1206.443 227.888)">
            <path id="Path_30" data-name="Path 30" d="M0,.394,7.849,3.312,15.8,0,11.178,5.912,16.4,14.175l-8.47-3.563L.594,15.2,4.573,7.5Z" transform="matrix(0.616, 0.788, -0.788, 0.616, 231.979, -20)" fill="#fff"/>
            <path id="Path_31" data-name="Path 31" d="M0,.125l2.492.926L5.014,0,3.548,1.877,5.207,4.5,2.518,3.369.189,4.826,1.452,2.382Z" transform="matrix(0.017, 1, -1, 0.017, 242.869, 2.692)" fill="#fff"/>
          </g>
          <rect id="Rectangle_98" data-name="Rectangle 98" width="49.56" height="42.051" transform="translate(1268.854 265.363)" fill="url(#linear-gradient-10)"/>
          <rect id="Rectangle_99" data-name="Rectangle 99" width="68.032" height="27.033" transform="translate(1325.472 265.363)" fill="url(#linear-gradient-10)"/>
          <rect id="Rectangle_100" data-name="Rectangle 100" width="68.032" height="9.011" transform="translate(1325.472 298.403)" fill="url(#linear-gradient-10)"/>
          <rect id="Rectangle_101" data-name="Rectangle 101" width="124.651" height="13.516" transform="translate(1268.854 323.016)" fill="url(#linear-gradient-13)"/>
          <rect id="Rectangle_102" data-name="Rectangle 102" width="124.651" height="13.516" transform="translate(1268.854 351.345)" fill="url(#linear-gradient-13)"/>
          <rect id="Rectangle_103" data-name="Rectangle 103" width="124.651" height="13.516" transform="translate(1268.854 380.514)" fill="url(#linear-gradient-13)"/>
          <rect id="Rectangle_104" data-name="Rectangle 104" width="124.651" height="13.516" transform="translate(1268.854 409.683)" fill="url(#linear-gradient-13)"/>
          <ellipse id="Ellipse_21" data-name="Ellipse 21" cx="14.889" cy="14.889" rx="14.889" ry="14.889" transform="translate(1207.182 182.935)" opacity="0.12"/>
          <g id="Rectangle_59" data-name="Rectangle 59" transform="translate(1319.425 337.554)" fill="#fff" stroke="#f70f47" stroke-width="1">
            <rect width="147.712" height="28.698" rx="2" stroke="none"/>
            <rect x="0.5" y="0.5" width="146.712" height="27.698" rx="1.5" fill="none"/>
          </g>
          <path id="ic_search_24px" d="M14.982,13.544h-.757l-.268-.259a6.24,6.24,0,1,0-.671.671l.259.268v.757l4.793,4.783,1.428-1.428Zm-5.751,0a4.313,4.313,0,1,1,4.313-4.313A4.308,4.308,0,0,1,9.231,13.544Z" transform="translate(1442.173 340.747)" fill="#f70f47"/>
        </g>
        <rect id="Rectangle_93" data-name="Rectangle 93" width="789.539" height="9.943" rx="4.971" transform="translate(1106.991 864.198)" fill="url(#linear-gradient-17)"/>
        <g id="Clock" transform="translate(1719.176 199.901)" opacity="0.81">
          <circle id="Clock_Frame" data-name="Clock Frame" cx="59.684" cy="59.684" r="59.684" opacity="0.38" fill="url(#linear-gradient-18)"/>
          <circle id="Time-2" data-name="Time" cx="3.378" cy="3.378" r="3.378" transform="translate(56.306 9.009)" fill="#fff" opacity="0.56"/>
          <circle id="Time-3" data-name="Time" cx="3.378" cy="3.378" r="3.378" transform="translate(9.009 56.306)" fill="#fff" opacity="0.56"/>
          <circle id="Time-4" data-name="Time" cx="3.378" cy="3.378" r="3.378" transform="translate(103.603 56.306)" fill="#fff" opacity="0.56"/>
          <circle id="Time-5" data-name="Time" cx="3.378" cy="3.378" r="3.378" transform="translate(56.306 103.603)" fill="#fff" opacity="0.56"/>
          <path id="Hand" d="M2.252,0,4.5,39.414H0Z" transform="translate(57.432 19.144)" fill="#fff"/>
          <path id="Hand-2" data-name="Hand" d="M2.252,0,4.5,27.027H0Z" transform="translate(81.207 78.022) rotate(135)" fill="#fff"/>
          <g transform="matrix(1, 0, 0, 1, -1719.18, -139.9)" filter="url(#Time)">
            <circle id="Time-6" data-name="Time" cx="4.504" cy="4.504" r="4.504" transform="translate(1774.36 195.08)" fill="#fff"/>
          </g>
        </g>
        <path id="Path_252" data-name="Path 252" d="M-252.309-6179.561l-382.029,605.1,822.3,4.2-331.741-609.3Z" transform="translate(1780 6437)" opacity="0.96" fill="url(#linear-gradient-19)"/>
        <path id="Path_255" data-name="Path 255" d="M-248.344-6187.111l-55.617,612.651h134.724l-60.333-612.651Z" transform="translate(1820.148 6447)" opacity="0.17" fill="url(#linear-gradient-20)"/>
        <path id="Path_253" data-name="Path 253" d="M-241.519-6179.561l-392.819,605.1,187.083-18.651,230.738-586.45Z" transform="translate(1770 6439)" opacity="0.17" fill="url(#linear-gradient-20)"/>
        <path id="Path_254" data-name="Path 254" d="M-609.75-6179.561l329.829,605.273-161.726-18.823-198.306-586.45Z" transform="translate(2245.912 6439)" opacity="0.17" fill="url(#linear-gradient-22)"/>
        <rect id="Wire" width="4" height="302.534" transform="translate(1585.569 216.535) rotate(180)" fill="url(#linear-gradient-23)"/>
        <g id="Light" transform="translate(1533.569 208.208)">
          <ellipse id="Hanging_Lamp_Light" data-name="Hanging Lamp Light" cx="42.5" cy="22.5" rx="42.5" ry="22.5" transform="translate(7 12)" fill="url(#linear-gradient-24)"/>
          <path id="Hanging_Lamp" data-name="Hanging Lamp" d="M109.977,55.544C109.977,24.868,85.358,0,54.989,0S0,24.868,0,55.544" transform="translate(-6.87 -3.772)" fill="url(#linear-gradient-25)"/>
        </g>
        <path id="Path_256" data-name="Path 256" d="M-220.1-6245.764l-414.242,671.3,822.3,4.2-339.483-675.5Z" transform="translate(1763 6506)" opacity="0.1" fill="url(#linear-gradient-19)"/>
        <g id="Group_178" data-name="Group 178" transform="translate(3634 7384)">
          <path id="Path_56" data-name="Path 56" d="M25.211,24.546C65.911,3.8,118.427,2.226,163.854,21.658s37.024,94.661,37.024,94.661H1.316A157,157,0,0,1-1.938,76.96C-.943,57.221,5.145,34.773,25.211,24.546Z" transform="translate(-2194 -6791.329)" fill="url(#linear-gradient-27)"/>
          <g id="Group_1" data-name="Group 1" transform="translate(-2285.178 -6716.439)">
            <rect id="Rectangle_4" data-name="Rectangle 4" width="391.086" height="20.218" rx="10.109" transform="translate(0 175.806)" fill="#2e37a5"/>
            <path id="Path_73" data-name="Path 73" d="M11.811,0H306.452a11.811,11.811,0,0,1,11.811,11.811V176.8a11.811,11.811,0,0,1-11.811,11.811H11.811A11.811,11.811,0,0,1,0,176.8V11.811A11.811,11.811,0,0,1,11.811,0Z" transform="translate(31.758 0)" fill="#272f95"/>
            <rect id="Rectangle_2" data-name="Rectangle 2" width="318.263" height="188.609" rx="3" transform="translate(40.926 0)" fill="#1c237b"/>
          </g>
          <path id="Path_20" data-name="Path 20" d="M5.832,0H44.17a36.961,36.961,0,0,0,2.223,13.962C49.032,20.488,53.9,28.909,53.067,30.6s-9.592,6.835-22.788,7.645S2.637,33.416,1.109,31.162s4.237-10.168,5.834-17.2S5.832,0,5.832,0Z" transform="translate(-2117.254 -6810.313)" fill="#eea671"/>
          <g id="Group_41" data-name="Group 41" transform="translate(-2151.866 -6919.553) rotate(-3)">
            <g id="Group_42" data-name="Group 42" transform="translate(0 0)">
              <path id="Path_69" data-name="Path 69" d="M22.9.6S78.021-2.44,83.931,5.159,80.463,40.006,77.3,60.4s-2.533,19.25-8.081,27.471-12.544,11.383-24.967,11S21.814,87.057,15.542,78.639s-3.015-25.716-5.548-29.09S3.088,43.478,1.309,37.027-.862,25.581,2.877,23.747s11.1,9.107,14.112,5.186S22.9.6,22.9.6Z" transform="translate(9.657 37.68)" fill="#fec194"/>
              <path id="Path_70" data-name="Path 70" d="M16.153,22.7S20.133,2.915,45.945.262s44.266,15.68,47.04,17.851-3.044,5.17-.753,5.863,6.18-4.6,9.919-3.089,4.7,7.237,3.98,10.132S99.257,45.131,92.985,48.991,81.5,53.785,67.414,52.006,44.015,37.17,36.657,41.874s-6.875,26.174-10.976,26.9-9.77-7.719-13.268-6.031-1.078,9.228-2.895,7.478C6.262,67.083-1.427,50.981.231,39.1S16.153,22.7,16.153,22.7Z" transform="translate(0 0)" fill="#4e3d3d"/>
              <path id="Path_71" data-name="Path 71" d="M0,3.359S2.324-2.008,6.757.826,7.812,12.767,17.733,14.7,33.865,7.822,46.44,8.546s16.886,5.307,18.7,8.2S61.4,35.8,59.345,37.976,47.71,53.867,29.135,49.645c-13.114-2.98-26.3-19.123-27.805-27.108C-.118,17.833,0,3.359,0,3.359Z" transform="translate(20.734 86.882)" fill="#4e3d3d"/>
              <path id="Path_72" data-name="Path 72" d="M.909,3.372C2.419,1.047,5.831.378,7.9.114s5.752-.238,7.669,1.968a5.084,5.084,0,0,1,0,6.855c-1.612,1.578-3.02-.662-6.447-.543S3.912,10.667,1.859,9.412-.6,5.7.909,3.372Z" transform="translate(54.875 105.305)" fill="#fd6173"/>
            </g>
          </g>
          <g id="Mask_Group_13" data-name="Mask Group 13" transform="translate(-397 7)" clip-path="url(#clip-path-2)">
            <g id="Group_177" data-name="Group 177">
              <path id="Path_56-2" data-name="Path 56" d="M25.211,24.546C65.911,3.8,118.427,2.226,163.854,21.658s37.024,94.661,37.024,94.661H1.316A157,157,0,0,1-1.938,76.96C-.943,57.221,5.145,34.773,25.211,24.546Z" transform="translate(-1797 -6798.329)" fill="url(#linear-gradient-28)"/>
              <g id="Group_1-2" data-name="Group 1" transform="translate(-1888.178 -6723.439)">
                <rect id="Rectangle_4-2" data-name="Rectangle 4" width="391.086" height="20.218" rx="10.109" transform="translate(0 175.806)" fill="#1f2684"/>
                <path id="Path_73-2" data-name="Path 73" d="M11.811,0H306.452a11.811,11.811,0,0,1,11.811,11.811V176.8a11.811,11.811,0,0,1-11.811,11.811H11.811A11.811,11.811,0,0,1,0,176.8V11.811A11.811,11.811,0,0,1,11.811,0Z" transform="translate(31.758 0)" fill="#272f95"/>
                <rect id="Rectangle_2-2" data-name="Rectangle 2" width="318.263" height="188.609" rx="3" transform="translate(40.926 0)" fill="#0d1358"/>
              </g>
              <path id="Path_257" data-name="Path 257" d="M5.832,0H44.17a36.961,36.961,0,0,0,2.223,13.962C49.032,20.488,53.9,28.909,53.067,30.6s-9.592,6.835-22.788,7.645S2.637,33.416,1.109,31.162s4.237-10.168,5.834-17.2S5.832,0,5.832,0Z" transform="translate(-1720.254 -6817.313)" fill="#eea671"/>
              <g id="Group_42-2" data-name="Group 42" transform="translate(-1754.866 -6926.553) rotate(-3)">
                <path id="Path_69-2" data-name="Path 69" d="M22.9.6S78.021-2.44,83.931,5.159,80.463,40.006,77.3,60.4s-2.533,19.25-8.081,27.471-12.544,11.383-24.967,11S21.814,87.057,15.542,78.639s-3.015-25.716-5.548-29.09S3.088,43.478,1.309,37.027-.862,25.581,2.877,23.747s11.1,9.107,14.112,5.186S22.9.6,22.9.6Z" transform="translate(9.657 37.68)" fill="#febd8d"/>
                <path id="Path_70-2" data-name="Path 70" d="M16.153,22.7S20.133,2.915,45.945.262s44.266,15.68,47.04,17.851-3.044,5.17-.753,5.863,6.18-4.6,9.919-3.089,4.7,7.237,3.98,10.132S99.257,45.131,92.985,48.991,81.5,53.785,67.414,52.006,44.015,37.17,36.657,41.874s-6.875,26.174-10.976,26.9-9.77-7.719-13.268-6.031-1.078,9.228-2.895,7.478C6.262,67.083-1.427,50.981.231,39.1S16.153,22.7,16.153,22.7Z" transform="translate(0 0)" fill="#2a1919"/>
                <path id="Path_71-2" data-name="Path 71" d="M0,3.359S2.324-2.008,6.757.826,7.812,12.767,17.733,14.7,33.865,7.822,46.44,8.546s16.886,5.307,18.7,8.2S61.4,35.8,59.345,37.976,47.71,53.867,29.135,49.645c-13.114-2.98-26.3-19.123-27.805-27.108C-.118,17.833,0,3.359,0,3.359Z" transform="translate(20.734 86.882)" fill="#392929"/>
                <path id="Path_72-2" data-name="Path 72" d="M.909,3.372C2.419,1.047,5.831.378,7.9.114s5.752-.238,7.669,1.968a5.084,5.084,0,0,1,0,6.855c-1.612,1.578-3.02-.662-6.447-.543S3.912,10.667,1.859,9.412-.6,5.7.909,3.372Z" transform="translate(54.875 105.305)" fill="#fd6173"/>
              </g>
            </g>
          </g>
          <circle id="Ellipse_22" data-name="Ellipse 22" cx="19.162" cy="19.162" r="19.162" transform="translate(-2109.162 -6631.162)" fill="#fff" opacity="0.57"/>
          <circle id="Ellipse_23" data-name="Ellipse 23" cx="14.372" cy="14.372" r="14.372" transform="translate(-2104.372 -6626.372)" fill="#fff"/>
        </g>
        <g id="Group_179" data-name="Group 179" transform="translate(1494.805 5965.908)">
          <path id="Path_244" data-name="Path 244" d="M42.187.115C14.01-1.764,8.118,19.735,14.145,33.722c8.54,19.815,20.354,19.47-2.931,43.961C-5.971,95.752-4.2,124.208,22.054,132.372c36.7,11.416,6.052,34.439,2.528,52.628-7.273,37.565,19.989,39.763,64.9,46.757,46.113,7.182,75.481-8.786,98.331-42.523,16.874-24.907,24.407-50.241,6.581-67.234-25.6-24.4-51.432,2.579-46.351-28.4,3.042-18.543-3.836-50.074-42.759-43.61S82.769,2.825,42.187.115Z" transform="translate(323.66 -5208.703) rotate(8)" fill="#2555ef"/>
          <path id="Path_245" data-name="Path 245" d="M105.419,222.061l-1.8-9.822-3.6-19.648c-1.434-6.5-3.187-12.93-4.77-19.4l-2.43-9.688c-.876-3.213-1.984-6.356-2.966-9.536-2.054-6.334-3.98-12.72-6.143-19.014A425.617,425.617,0,0,0,49.441,62.878C35.645,40.133,19.858,18.391.482,0L0,.551q3.331,3.7,6.393,7.642c2.14,2.524,4.154,5.157,6.153,7.79,2.05,2.593,3.962,5.291,5.842,8.015,1.861,2.731,3.868,5.339,5.588,8.171,3.614,5.516,7.359,10.916,10.622,16.646,1.67,2.832,3.416,5.61,5.132,8.406l4.763,8.627,4.737,8.62,4.394,8.8,4.4,8.79c1.474,2.923,2.647,5.994,3.991,8.986,1.275,3.017,2.658,5.983,4,8.971l2.018,4.477c.637,1.507,1.181,3.053,1.778,4.581l7.012,18.352c2.187,6.175,4.14,12.433,6.222,18.649,1,3.118,2.123,6.2,3.013,9.359.83,3.173,1.641,6.349,2.536,9.5,1.709,6.335,3.6,12.629,5.172,19.011,1.308,6.436,2.735,12.854,4.187,19.275l2.162,9.648" transform="translate(364.349 -5164.927) rotate(8)" fill="#40a4e1"/>
          <path id="Path_246" data-name="Path 246" d="M54.11,7.691a48.762,48.762,0,0,0-13.028-5.27c-2.224-.666-4.5-1.01-6.766-1.46C32.042.6,29.742.4,27.453.147a71.43,71.43,0,0,0-13.9.42A40.655,40.655,0,0,0,0,4.638l.062.482A139.663,139.663,0,0,1,27.1,5.008,261.572,261.572,0,0,1,54.02,8.169Z" transform="translate(342.567 -5083.768) rotate(8)" fill="#40a4e1"/>
          <path id="Path_247" data-name="Path 247" d="M44.338,11.038A35.958,35.958,0,0,0,34.317,4.692a51.52,51.52,0,0,0-5.4-2.09c-1.84-.58-3.716-1.018-5.588-1.5A54.056,54.056,0,0,0,11.731.02,30.912,30.912,0,0,0,0,2.378l0,.489A115.833,115.833,0,0,1,22.318,5.88,218.006,218.006,0,0,1,44.182,11.5Z" transform="translate(340.058 -5132.017) rotate(8)" fill="#40a4e1"/>
          <path id="Path_248" data-name="Path 248" d="M.786,27.287a38.214,38.214,0,0,0,2.824-7.3c.664-2.318,1.246-4.535,1.728-6.671.141-1.112.489-2.119.706-3.169L6.4,8.584a12.86,12.86,0,0,0,.409-1.528A33.517,33.517,0,0,1,9.41.395L9.2,0A13.925,13.925,0,0,0,3.753,5.241,24.051,24.051,0,0,0,.982,12.3,45.818,45.818,0,0,0,.34,27.337Z" transform="translate(426.927 -5101.228) rotate(8)" fill="#40a4e1"/>
          <path id="Path_249" data-name="Path 249" d="M71.733,10.194A64.6,64.6,0,0,0,54.46,3.214c-2.948-.887-5.965-1.34-8.967-1.938C42.476.8,39.433.524,36.391.19A95.584,95.584,0,0,0,17.974.748,54.025,54.025,0,0,0,0,6.145l.083.641C11.977,5.388,24,5.717,35.932,6.641a348.29,348.29,0,0,1,35.678,4.187Z" transform="translate(343.311 -5035.141) rotate(8)" fill="#40a4e1"/>
          <path id="Path_251" data-name="Path 251" d="M2.512,22.031a28.041,28.041,0,0,0,.814-5.979c.109-1.869.048-3.643.059-5.36-.1-1.72-.113-3.376-.113-5.005A21.389,21.389,0,0,1,3.939.254L3.718,0A10.471,10.471,0,0,0,.712,4.973,19.113,19.113,0,0,0,0,10.764,41.681,41.681,0,0,0,2.19,22.136Z" transform="translate(403.466 -5143.589) rotate(8)" fill="#40a4e1"/>
          <path id="Path_250" data-name="Path 250" d="M1.074,43.293C4.3,37.668,5.685,30.8,7.108,24.547A83.459,83.459,0,0,1,13.373,6.188q1.125-2.3,2.409-4.527c.456-.789.9-2.224-.268-1.427A11.842,11.842,0,0,0,13.75,2.1c-1.007,1.123-2.065,2.245-2.97,3.455A81.055,81.055,0,0,0,5.308,13.63C.172,22.562-.737,33.275.484,43.358Z" transform="translate(452.168 -5064.297) rotate(8)" fill="#40a4e1"/>
        </g>
        <g id="Group_180" data-name="Group 180" transform="translate(1556.74 6063.439)">
          <path id="Path_244-2" data-name="Path 244" d="M25.7.07C8.536-1.075,4.946,12.024,8.618,20.547c5.2,12.073,12.4,11.863-1.786,26.785-10.471,11.01-9.39,28.348,6.6,33.322,22.359,6.956,3.688,20.984,1.54,32.066-4.431,22.888,12.179,24.228,39.545,28.489,28.1,4.376,45.991-5.354,59.913-25.91,10.281-15.176,14.871-30.612,4.01-40.966-15.6-14.867-31.338,1.571-28.242-17.305,1.854-11.3-2.337-30.51-26.053-26.571S50.432,1.721,25.7.07Z" transform="translate(310.966 -5208.703) rotate(8)" fill="#264fd5"/>
          <path id="Path_245-2" data-name="Path 245" d="M64.232,135.3l-1.1-5.985-2.2-11.972c-.874-3.961-1.942-7.878-2.906-11.822l-1.481-5.9c-.534-1.957-1.209-3.873-1.807-5.81-1.251-3.86-2.425-7.75-3.743-11.585A259.33,259.33,0,0,0,30.125,38.312C21.719,24.453,12.1,11.206.293,0L0,.335Q2.029,2.59,3.9,4.992C5.2,6.53,6.426,8.134,7.644,9.738c1.249,1.58,2.414,3.224,3.56,4.883s2.357,3.253,3.405,4.979c2.2,3.361,4.484,6.651,6.472,10.142,1.018,1.726,2.081,3.418,3.127,5.122l2.9,5.257L30,45.373l2.677,5.362,2.681,5.356c.9,1.781,1.613,3.652,2.432,5.475.777,1.838,1.62,3.646,2.434,5.466L41.45,69.76c.388.918.719,1.86,1.083,2.792l4.272,11.182C48.138,87.5,49.328,91.309,50.6,95.1c.607,1.9,1.293,3.78,1.836,5.7.506,1.933,1,3.868,1.545,5.791,1.042,3.86,2.2,7.695,3.151,11.583.8,3.921,1.666,7.832,2.551,11.744L61,135.795" transform="translate(335.758 -5182.03) rotate(8)" fill="#40a4e1"/>
          <path id="Path_246-2" data-name="Path 246" d="M32.969,4.686a29.711,29.711,0,0,0-7.938-3.211C23.676,1.069,22.291.86,20.909.586,19.523.366,18.122.242,16.727.09A43.522,43.522,0,0,0,8.26.346,24.771,24.771,0,0,0,0,2.826l.038.293a85.1,85.1,0,0,1,16.476-.068,159.376,159.376,0,0,1,16.4,1.926Z" transform="translate(322.486 -5132.58) rotate(8)" fill="#40a4e1"/>
          <path id="Path_247-2" data-name="Path 247" d="M27.015,6.725a21.909,21.909,0,0,0-6.106-3.866,31.391,31.391,0,0,0-3.293-1.273c-1.121-.353-2.264-.62-3.4-.914A32.936,32.936,0,0,0,7.147.012,18.835,18.835,0,0,0,0,1.449l0,.3A70.577,70.577,0,0,1,13.6,3.583,132.832,132.832,0,0,1,26.92,7.008Z" transform="translate(320.957 -5161.978) rotate(8)" fill="#40a4e1"/>
          <path id="Path_248-2" data-name="Path 248" d="M.479,16.626A23.284,23.284,0,0,0,2.2,12.177c.4-1.412.759-2.763,1.053-4.065.086-.678.3-1.291.43-1.931L3.9,5.23A7.835,7.835,0,0,0,4.149,4.3,20.422,20.422,0,0,1,5.734.241L5.606,0A8.485,8.485,0,0,0,2.287,3.193,14.654,14.654,0,0,0,.6,7.5a27.917,27.917,0,0,0-.391,9.16Z" transform="translate(373.887 -5143.218) rotate(8)" fill="#40a4e1"/>
          <path id="Path_249-2" data-name="Path 249" d="M43.707,6.211A39.36,39.36,0,0,0,33.183,1.959c-1.8-.541-3.634-.816-5.464-1.181C25.881.487,24.027.319,22.173.116a58.239,58.239,0,0,0-11.221.34A32.918,32.918,0,0,0,0,3.744l.051.391a112.686,112.686,0,0,1,21.843-.088A212.214,212.214,0,0,1,43.632,6.6Z" transform="translate(322.939 -5102.951) rotate(8)" fill="#40a4e1"/>
          <path id="Path_251-2" data-name="Path 251" d="M1.53,13.424a17.085,17.085,0,0,0,.5-3.643c.067-1.139.029-2.22.036-3.266C2,5.466,1.994,4.458,1.994,3.465A13.032,13.032,0,0,1,2.4.154L2.265,0A6.38,6.38,0,0,0,.434,3.03,11.646,11.646,0,0,0,0,6.558a25.4,25.4,0,0,0,1.333,6.929Z" transform="translate(359.592 -5169.029) rotate(8)" fill="#40a4e1"/>
          <path id="Path_250-2" data-name="Path 250" d="M.654,26.378c1.966-3.427,2.81-7.609,3.677-11.422A50.852,50.852,0,0,1,8.148,3.77q.685-1.4,1.468-2.758c.278-.481.547-1.355-.163-.869A7.216,7.216,0,0,0,8.378,1.281c-.613.684-1.258,1.368-1.809,2.105A49.387,49.387,0,0,0,3.234,8.305C.1,13.747-.449,20.274.295,26.418Z" transform="translate(389.266 -5120.716) rotate(8)" fill="#40a4e1"/>
        </g>
      </g>
    </g>
  </g>
</svg>
