<svg xmlns="http://www.w3.org/2000/svg" xmlns:xlink="http://www.w3.org/1999/xlink" width="2564.513" height="2031.62" viewBox="0 0 2564.513 2031.62">
  <defs>
    <linearGradient id="linear-gradient" x1="0.173" y1="0.285" x2="0.954" y2="0.983" gradientUnits="objectBoundingBox">
      <stop offset="0" stop-color="#0b42f5"/>
      <stop offset="1" stop-color="#34b3ff"/>
    </linearGradient>
  </defs>
  <path id="Path_90" data-name="Path 90" d="M.1,543.4C7.127,332.228,530.076.837,641.714,55.786c158.159,77.843,145.765,165.592,368.483,9.856C1085.8,12.765,1187.609-15.3,1282.06,8.619c67.931,17.2,127.629,61.352,155.338,119.406,15.407,32.3,79.471.933,91.276,34.425s22.065,107.63,56.695,124.2c33.352,15.959,25.461,39.363,62.056,30.793,88-20.615,164.112-73.065,254.464-86.64,76.154-11.441,167.1,1.851,229.26,44.284C2212.5,330.629,2241.292,427.3,2258.418,513.2c20.083,100.742,16.685,204.8-5.68,304.992-28.665,128.353-87.9,250.386-165.117,361.588-68.738,99-152.834,190.8-257.223,260.564-165.092,110.348-447.056,194.039-598.717,21.125-182.589-208.175,62.922-381.1-199.225-365.568-156.87,9.3-413.932-64.611-328.739-349.781S-10.036,847.507.1,543.4Z" transform="translate(0 511.016) rotate(-13)" fill="url(#linear-gradient)"/>
</svg>
