<svg xmlns="http://www.w3.org/2000/svg" xmlns:xlink="http://www.w3.org/1999/xlink" width="586.411" height="578.609" viewBox="0 0 586.411 578.609">
  <defs>
    <linearGradient id="linear-gradient" x1="-0.273" y1="0.193" x2="1.2" y2="0.723" gradientUnits="objectBoundingBox">
      <stop offset="0" stop-color="#34b3ff"/>
      <stop offset="1" stop-color="#0a0ed6"/>
    </linearGradient>
    <linearGradient id="linear-gradient-2" x1="0.602" y1="0.314" x2="0.248" y2="1.578" gradientUnits="objectBoundingBox">
      <stop offset="0" stop-color="#34b3ff"/>
      <stop offset="1" stop-color="#2354f3"/>
    </linearGradient>
    <linearGradient id="linear-gradient-3" x1="-0.268" y1="0.105" x2="1.26" y2="0.554" gradientUnits="objectBoundingBox">
      <stop offset="0" stop-color="#0042ff"/>
      <stop offset="1" stop-color="#3bfaff"/>
    </linearGradient>
    <linearGradient id="linear-gradient-4" x1="0.672" y1="-0.159" x2="0.5" y2="1" gradientUnits="objectBoundingBox">
      <stop offset="0" stop-color="#34b3ff"/>
      <stop offset="1" stop-color="#0b42f5"/>
    </linearGradient>
    <linearGradient id="linear-gradient-5" x1="0.5" y1="0" xlink:href="#linear-gradient-4"/>
    <filter id="Ellipse_25" x="221.753" y="60.675" width="32" height="32" filterUnits="userSpaceOnUse">
      <feOffset dy="3" input="SourceAlpha"/>
      <feGaussianBlur stdDeviation="3" result="blur"/>
      <feFlood flood-opacity="0.161"/>
      <feComposite operator="in" in2="blur"/>
      <feComposite in="SourceGraphic"/>
    </filter>
    <linearGradient id="linear-gradient-8" x1="0.5" x2="0.5" y2="1" gradientUnits="objectBoundingBox">
      <stop offset="0" stop-color="#14afff"/>
      <stop offset="1" stop-color="#3bfaff"/>
    </linearGradient>
    <linearGradient id="linear-gradient-9" x1="-0.324" x2="0.968" y2="1.128" gradientUnits="objectBoundingBox">
      <stop offset="0" stop-color="#3bfaff"/>
      <stop offset="1" stop-color="#0b42f5"/>
    </linearGradient>
    <linearGradient id="linear-gradient-10" x1="0.236" y1="0.178" x2="1.093" y2="0.904" gradientUnits="objectBoundingBox">
      <stop offset="0" stop-color="#3bfaff"/>
      <stop offset="1" stop-color="#2354f3"/>
    </linearGradient>
    <linearGradient id="linear-gradient-11" x1="-394.891" y1="1" x2="-394.891" gradientUnits="objectBoundingBox">
      <stop offset="0" stop-color="#00dfff"/>
      <stop offset="0.251" stop-color="#0cf"/>
      <stop offset="0.755" stop-color="#009bff"/>
      <stop offset="1" stop-color="#0082ff"/>
    </linearGradient>
    <linearGradient id="linear-gradient-12" x1="0.623" y1="1.441" x2="0.467" y2="-0.067" xlink:href="#linear-gradient-10"/>
    <linearGradient id="linear-gradient-13" x1="1.313" y1="-0.295" x2="0.079" y2="1.133" gradientUnits="objectBoundingBox">
      <stop offset="0" stop-color="#2354f3"/>
      <stop offset="1" stop-color="#3bfaff"/>
    </linearGradient>
    <linearGradient id="linear-gradient-14" x1="1.029" y1="0.481" x2="-0.047" y2="0.508" gradientUnits="objectBoundingBox">
      <stop offset="0" stop-color="#34b3ff"/>
      <stop offset="1" stop-color="#3bfaff"/>
    </linearGradient>
  </defs>
  <g id="Analysis_illustration" data-name="Analysis illustration" transform="translate(-292.247 -2138.325)">
    <g id="Group_223" data-name="Group 223" transform="translate(-1406.768 1504.512)">
      <path id="Path_282" data-name="Path 282" d="M2035.425,578.224c-63.209,66.3-144.436,126.489-250.142,145.606-51.9,9.384-74.956,34.128-75.334,62.524-.323,24.195,14.062,52.7,64.868,82.489,124.142,72.8,262.844,46.582,334.977,14.893,90.518-39.766,169.6-132.334,148.438-234.479C2233.521,530,2106.258,503.937,2035.425,578.224Z" transform="translate(23.729 97.204)" fill="url(#linear-gradient)"/>
      <path id="Path_283" data-name="Path 283" d="M1831.72,621.222c-23.307-.92-49.116-1.522-90.6-22.273-45.031-22.52-61.795,48.738-10.6,71.81,46.648,21.023,92.247-2.689,107.565-20.2C1861.062,624.3,1838.884,621.5,1831.72,621.222Z" transform="translate(0 223.138)" fill="url(#linear-gradient-2)"/>
      <g id="Group_218" data-name="Group 218" transform="translate(1720.589 638.984)">
        <path id="Path_289" data-name="Path 289" d="M2162.164,764.721a910.939,910.939,0,0,0-397.785,0,14.229,14.229,0,0,1-17-10.355q-20.617-85.885-41.235-171.761c-1.817-7.475,4.253-15.366,13.59-17.452a1115.4,1115.4,0,0,1,487.088,0c9.334,2.087,15.407,9.977,13.59,17.452q-20.618,85.88-41.238,171.761a14.227,14.227,0,0,1-17,10.355" transform="translate(-1705.818 -538.24)" fill="url(#linear-gradient-3)"/>
        <path id="Path_290" data-name="Path 290" d="M1747.012,734.3q-17.64-78.759-35.275-157.521c-.945-4.183,2.451-8.512,7.592-9.616a1101.619,1101.619,0,0,1,462.869,0c5.141,1.1,8.537,5.432,7.592,9.616q-17.635,78.759-35.273,157.521a7.939,7.939,0,0,1-9.495,5.867,924.635,924.635,0,0,0-388.518,0,7.939,7.939,0,0,1-9.492-5.867" transform="translate(-1693.309 -528.809)" fill="#fff"/>
        <path id="Path_291" data-name="Path 291" d="M1806.215,554.737q-2.559,73.839-5.119,147.683c-1.088-.052-2.179-.1-3.267-.147,1.554-49.234,4.672-147.7,4.672-147.7s2.474.107,3.713.166" transform="translate(-1606.928 -454.139) rotate(-2)" fill="url(#linear-gradient-4)"/>
        <path id="Path_292" data-name="Path 292" d="M1730.027,582.593q5.285,53.943,10.577,107.885-1.617.609-3.225,1.236-5.385-53.905-10.77-107.811C1727.747,583.461,1728.885,583.03,1730.027,582.593Z" transform="translate(-1741.816 -218.203) rotate(-9)" fill="#e2ebf4"/>
        <path id="Path_294" data-name="Path 294" d="M1777.578,565.418c1.1,10.887,2.195,22.775,3.3,33.662q-1.637.021-3.267.046c-1.205-10.886-2.407-22.773-3.609-33.659Z" transform="translate(-1629.772 -411.053)" fill="#e2ebf4"/>
        <path id="Path_295" data-name="Path 295" d="M1835.729,557.659c-4,34.01-8,75.017-12,109.028-1.085-.127-2.173-.254-3.255-.377,3.878-34.023,7.761-75.046,11.639-109.069Q1833.924,557.445,1835.729,557.659Z" transform="translate(-1456.844 -481.783)" fill="#e2ebf4"/>
        <path id="Union_4" data-name="Union 4" d="M1822.268,4292.055c-6.685-20.944-13.727-40.845-32.806-43.113a27.815,27.815,0,0,0-3.158-.181c-17.218,0-27.987,16.8-38.662,34.581-11.107,18.42-21.826,37.471-40.569,37.791,0-.016,0-.034,0-.051a17.56,17.56,0,0,1-3.307-.168,7.533,7.533,0,0,1-.03-1L1703.7,4321c-18.613-1.807-27.811-21.6-37.451-40.79-9.642-19.29-19.457-37.534-37.934-37.534-.352,0-.7.005-1.066.019-19.167.792-27.7,20.091-35.957,40.455-7.884,19.333-15.308,39.192-32.65,43.293q-.18-1.594-.361-3.185c15.248-3.9,21.953-22,29.7-41.15,8.21-20.439,17.516-41.685,39.148-42.582.413-.016.821-.023,1.224-.023,20.828,0,31.528,20.05,41.124,39.408,9.518,19.092,17.843,37.15,34.344,38.91,0,0,0,.005,0,.009l3.382.162c0-.011,0-.022,0-.034,16.644-.434,26.351-17.824,37.328-36.154,10.627-17.833,22.323-36.221,41.659-36.224a31.974,31.974,0,0,1,3.645.212c21.53,2.563,29.2,24.465,35.833,45.482,6.257,19.653,11.557,38.181,26.436,43.3-.2,1.047-.4,2.1-.609,3.146C1834.541,4332.246,1828.655,4311.905,1822.268,4292.055Zm33.129,43.4c-.064.312-.124.622-.184.935C1855.273,4336.074,1855.333,4335.764,1855.4,4335.452Zm-345.12-42.78c-11.573-16.2-23.158-31.5-39.291-31.5a26.982,26.982,0,0,0-5.195.514c-.2-1.038-.409-2.075-.612-3.111a31.078,31.078,0,0,1,5.981-.593c18.052,0,30.591,16.672,42.11,32.916,12.083,16.967,22.9,33.139,38.85,33.139a24.486,24.486,0,0,0,2.816-.166l.091-.01a24.315,24.315,0,0,0,3.251-.6q.181,1.594.361,3.185a28.044,28.044,0,0,1-3.241.564l-.092.009h0a27.649,27.649,0,0,1-3.244.194C1534.271,4327.21,1522.439,4309.631,1510.277,4292.672Zm44.78,32.215-.12-1.021Z" transform="translate(-1410.788 -4171.917)" fill="#ecf0fc"/>
        <path id="Path_300" data-name="Path 300" d="M1845.388,589.528c-.2,1.047-.4,2.1-.608,3.146a28.43,28.43,0,0,0,3.288.844c.143-.726.286-1.449.432-2.176.06-.314.12-.625.184-.936a24.059,24.059,0,0,1-3.3-.878" transform="translate(-1404.075 -426.872)" fill="#d2dcf7"/>
        <path id="Path_301" data-name="Path 301" d="M1730.5,556.587a4.776,4.776,0,1,1-5.55-3.622A4.688,4.688,0,0,1,1730.5,556.587Z" transform="translate(-1672.767 -506.459)" fill="url(#linear-gradient-5)"/>
        <path id="Path_302" data-name="Path 302" d="M1736.055,555.644a4.773,4.773,0,1,1-5.49-3.71A4.688,4.688,0,0,1,1736.055,555.644Z" transform="translate(-1660.717 -508.668)" fill="url(#linear-gradient-5)"/>
        <path id="Path_303" data-name="Path 303" d="M1741.624,554.8a4.769,4.769,0,1,1-5.426-3.8A4.691,4.691,0,0,1,1741.624,554.8Z" transform="translate(-1648.64 -510.678)" fill="url(#linear-gradient-5)"/>
        <path id="Path_296" data-name="Path 296" d="M1852.608,614.526c-4.456,22.666-1.954,9.9-6.41,32.567q-1.613-.319-3.222-.628c4.374-22.682,1.793-9.929,6.169-32.614" transform="translate(-1407.992 -451)" fill="#e2ebf4"/>
        <g transform="matrix(1, 0, 0, 1, -21.57, -5.17)" filter="url(#Ellipse_25)">
          <g id="Ellipse_25-2" data-name="Ellipse 25" transform="translate(230.75 66.67)" fill="#fff" stroke="#0b42f5" stroke-width="2.5">
            <circle cx="7" cy="7" r="7" stroke="none"/>
            <circle cx="7" cy="7" r="5.75" fill="none"/>
          </g>
        </g>
      </g>
      <g id="Group_222" data-name="Group 222" transform="translate(1948.783 764.584)">
        <g id="Group_219" data-name="Group 219" transform="translate(13.099 18.24)">
          <path id="Path_304" data-name="Path 304" d="M1898.105,626.912s-63.647,3.891-95.047-34.007l-9.063,13.234s35.146,53.023,112.484,58.6C1906.479,664.741,1911.6,644.127,1898.105,626.912Z" transform="translate(-1755.644 -563.379)" fill="url(#linear-gradient-8)"/>
          <path id="Path_305" data-name="Path 305" d="M1801.641,614.446a154.14,154.14,0,0,0,38.444,22.368l28.036-8.208-.765-18.432c-11.731-.672-29.158-2.9-46.1-9.635,0,0-.266,8.072-7.834,8.072A15.416,15.416,0,0,0,1801.641,614.446Z" transform="translate(-1739.039 -546.803)" fill="url(#linear-gradient-9)"/>
          <path id="Path_306" data-name="Path 306" d="M1843.293,640.169l3.469-36.541-29.123,30.829A163.991,163.991,0,0,0,1843.293,640.169Z" transform="translate(-1704.3 -540.095)" fill="#ffb500"/>
          <path id="Path_307" data-name="Path 307" d="M1823.176,609.487l-9.492-14.227L1782.173,583.6s-3.968,5.915,18.42,13.551l-3.885,6.191,3.822,11.224,12.584,3.6,2.062,3.346Z" transform="translate(-1781.901 -583.595)" fill="#fcd6ba"/>
          <path id="Path_308" data-name="Path 308" d="M1790.983,604.057l15.082-13.008,7.214,7.565-14.854,13.413Z" transform="translate(-1762.181 -567.409)" fill="url(#linear-gradient-10)"/>
        </g>
        <g id="Group_221" data-name="Group 221" transform="translate(0 13.274)">
          <path id="Path_309" data-name="Path 309" d="M1827.765,612.715l29.7,54.412-50.654.171L1778.1,614.38a2.711,2.711,0,0,1,2.378-4.005l43.169-.1A4.673,4.673,0,0,1,1827.765,612.715Z" transform="translate(-1777.772 -520.687)" fill="#fff"/>
          <path id="Path_310" data-name="Path 310" d="M1822.054,611.625l26.387,48.34-43.068.146-26.258-48.393Z" transform="translate(-1774.854 -517.765)" fill="#131637"/>
          <path id="Path_311" data-name="Path 311" d="M2170.953,726.107c0,10.384-83.1,18.8-185.6,18.8s-185.577-8.42-185.577-18.8,83.087-18.8,185.577-18.8S2170.953,715.721,2170.953,726.107Z" transform="translate(-1895.106 -310.347)" fill="#d2eaff"/>
          <g id="Group_220" data-name="Group 220" transform="translate(19.444)">
            <path id="Path_312" data-name="Path 312" d="M1816.321,592.991l-.844,5.561,5.209.566,2-3.8Z" transform="translate(-1715.341 -558.226)" fill="#fff"/>
            <path id="Path_313" data-name="Path 313" d="M1830.707,633.855v-8.347s-5.049.929-12.93-2.318v-7.637a10.158,10.158,0,0,0,5.4-3l-5.4-2,1-4-4.361-2.515,6.958-11.88.6-7,4.4,3,2,12.8,2.331-5s4.142-2.258,5.667,1.8a5.439,5.439,0,0,1-5.667,7.4l6.81,13.758,15.251.837v14.1Z" transform="translate(-1717.64 -575.228)" fill="#ffcda9"/>
            <path id="Path_314" data-name="Path 314" d="M1854.847,585.457c-18.077,1.2-25.017-2.718-30.563-3.428-1.716,10.244,2.236,6.727-6.086,13.13l1.982,13.961,2.322-6.359c1.992-1.11,6.539-.409,5.889,4.135-.72,5.039-5.889,5.062-5.889,5.062l6.809,13.758,10.237,5.6,5.015-4.767c29.291-18.255,10.285-41.1,10.285-41.1Z" transform="translate(-1709.434 -582.029)" fill="#131637"/>
            <path id="Path_315" data-name="Path 315" d="M1851.22,602.555s-11.322-6.7-29.894,0L1817,610.817l35.51-1.839Z" transform="translate(-1712.024 -543.929)" fill="#14afff"/>
            <path id="Path_316" data-name="Path 316" d="M1817.309,606.173a47.24,47.24,0,0,1,33.783-3.768l.761,3.78-22.394,1.161-12.15-1.174Z" transform="translate(-1711.362 -541.137)" opacity="0.4" fill="url(#linear-gradient-11)"/>
            <path id="Path_317" data-name="Path 317" d="M1821.378,587.368l-2.6,14.4-4.359-2.515Z" transform="translate(-1717.64 -570.436)" fill="#ff7588"/>
            <path id="Path_318" data-name="Path 318" d="M1878.672,612.055s-19.669-20.526-60.381-3.99l-6.745,126.676h76.263S1891.475,662.248,1878.672,612.055Z" transform="translate(-1723.875 -539.48)" fill="url(#linear-gradient-12)"/>
            <path id="Path_319" data-name="Path 319" d="M1808.95,639.119l-12.022-11.484-.239,5.864L1783.9,622.564a28.725,28.725,0,0,0,18.106,24.344Z" transform="translate(-1783.902 -494.011)" fill="#ffcda9"/>
            <path id="Path_320" data-name="Path 320" d="M1800.558,637.036l-6.5-7.418-6.508-7.415s-2.16,1.665-.621,4.678l4.37,7.4" transform="translate(-1778.526 -494.795)" fill="#ffcda9"/>
            <path id="Path_321" data-name="Path 321" d="M1863.318,603.655s-2,38.936-23.947,64.215c-20.119,23.174-38.685,14.795-38.685,14.795l-9.875,11.3s17.09,13.824,54.735-.51c30.018-11.43,33.5-50.939,33.5-50.939S1883.806,608.745,1863.318,603.655Z" transform="translate(-1768.902 -535.07)" fill="url(#linear-gradient-13)"/>
            <rect id="Rectangle_108" data-name="Rectangle 108" width="8.419" height="15.006" transform="translate(25.445 142.053) rotate(41.153)" fill="url(#linear-gradient-14)"/>
            <path id="Path_322" data-name="Path 322" d="M1851.611,719.279v3.048a2.261,2.261,0,0,1-2.261,2.261h-45.621s6.352-11.718,28.451-12.464A61.433,61.433,0,0,1,1851.611,719.279Z" transform="translate(-1740.849 -299.539)" fill="#31384e"/>
            <path id="Path_323" data-name="Path 323" d="M1865.69,717.918v4.529a2.766,2.766,0,0,1-2.765,2.766h-6.175a8.092,8.092,0,0,1-2.865-.52l-25.162-9.485s6.743-7.824,21.715-2.845Z" transform="translate(-1686.575 -302.622)" fill="#31384e"/>
            <path id="Path_324" data-name="Path 324" d="M1887.809,643.6l3.666,120.755a186.02,186.02,0,0,1,5.766,18.607c7.192,27.293,6.035,81.607,6.035,81.607s-6.774,6.362-15.536-.872L1864.366,758.46l-14.722-70.872L1839.915,756s6,15.79,3.349,42.944c-1.652,16.938-8.626,69.13-8.626,69.13s-12.86-.923-18.3-6.926l-4.789-125.534V643.6Z" transform="translate(-1723.875 -448.337)" fill="#002a88"/>
            <path id="Path_325" data-name="Path 325" d="M1823.559,673.712l6-10.918,23.221-12.806-13.952,14.5,2.967,95.9Z" transform="translate(-1697.791 -434.462)" fill="#001f5f"/>
            <path id="Path_326" data-name="Path 326" d="M1811.547,643.6l76.525,8.705-.264-8.705Z" transform="translate(-1723.875 -448.336)" fill="#001f5f"/>
          </g>
        </g>
        <path id="Path_327" data-name="Path 327" d="M1825.369,604.247s-2.817-.8-10.472,2.023c0,0-.625-17.218,16.314-25.232l-5.842-.1s12.429-8.547,28.74,2.743l-2.375-5.842s10.976,3.72,10.285,16.7c-7.91,7.964-19.368,6.5-19.368,6.5Z" transform="translate(-1697.162 -577.844)" fill="#131637"/>
      </g>
    </g>
    <g id="Group_226" data-name="Group 226" transform="translate(997.43 -13.725) rotate(22)">
      <g id="Group_225" data-name="Group 225" transform="matrix(0.829, -0.559, 0.559, 0.829, 3146.09, 7142.499)" opacity="0.36">
        <path id="Path_244" data-name="Path 244" d="M9.55.026C3.172-.4,1.838,4.468,3.2,7.634c1.933,4.486,4.608,4.408-.663,9.952-3.89,4.09-3.489,10.532,2.454,12.381,8.307,2.584,1.37,7.8.572,11.914-1.646,8.5,4.525,9,14.693,10.585,10.439,1.626,17.088-1.989,22.26-9.626,3.82-5.638,5.525-11.374,1.49-15.221-5.8-5.524-11.643.584-10.493-6.43.689-4.2-.868-11.336-9.68-9.872S18.737.639,9.55.026Z" transform="translate(298.525 -5208.703) rotate(8)" fill="#264fd5"/>
        <path id="Path_245" data-name="Path 245" d="M23.865,50.271l-.408-2.224L22.642,43.6c-.325-1.472-.721-2.927-1.08-4.392l-.55-2.193c-.2-.727-.449-1.439-.671-2.159-.465-1.434-.9-2.879-1.391-4.3a96.352,96.352,0,0,0-7.757-16.316A68,68,0,0,0,.109,0L0,.125q.754.837,1.447,1.73c.484.571.94,1.168,1.393,1.764s.9,1.2,1.323,1.814.876,1.209,1.265,1.85c.818,1.249,1.666,2.471,2.4,3.768.378.641.773,1.27,1.162,1.9l1.078,1.953,1.072,1.951.995,1.992,1,1.99c.334.662.6,1.357.9,2.034.289.683.6,1.354.9,2.031l.457,1.013c.144.341.267.691.4,1.037L17.39,31.11c.5,1.4.937,2.815,1.409,4.222.225.706.481,1.4.682,2.119s.371,1.437.574,2.151c.387,1.434.816,2.859,1.171,4.3.3,1.457.619,2.91.948,4.364l.49,2.184" transform="translate(307.736 -5198.793) rotate(8)" fill="#40a4e1"/>
        <path id="Path_246" data-name="Path 246" d="M12.249,1.741A11.039,11.039,0,0,0,9.3.548C8.8.4,8.282.319,7.769.218,7.254.136,6.733.09,6.215.033a16.17,16.17,0,0,0-3.146.1A9.2,9.2,0,0,0,0,1.05l.014.109a31.617,31.617,0,0,1,6.121-.025,59.215,59.215,0,0,1,6.094.716Z" transform="translate(302.805 -5180.42) rotate(8)" fill="#40a4e1"/>
        <path id="Path_247" data-name="Path 247" d="M10.037,2.5A8.14,8.14,0,0,0,7.769,1.062,11.663,11.663,0,0,0,6.545.589C6.129.458,5.7.359,5.28.25A12.237,12.237,0,0,0,2.656,0,7,7,0,0,0,0,.538V.649a26.222,26.222,0,0,1,5.052.682A49.353,49.353,0,0,1,10,2.6Z" transform="translate(302.237 -5191.343) rotate(8)" fill="#40a4e1"/>
        <path id="Path_248" data-name="Path 248" d="M.178,6.177A8.651,8.651,0,0,0,.817,4.524C.968,4,1.1,3.5,1.209,3.014c.032-.252.111-.48.16-.717l.08-.353A2.911,2.911,0,0,0,1.542,1.6,7.588,7.588,0,0,1,2.13.089L2.083,0A3.152,3.152,0,0,0,.85,1.186a5.445,5.445,0,0,0-.627,1.6,10.372,10.372,0,0,0-.145,3.4Z" transform="translate(321.903 -5184.373) rotate(8)" fill="#40a4e1"/>
        <path id="Path_249" data-name="Path 249" d="M16.239,2.308a14.624,14.624,0,0,0-3.91-1.58c-.667-.2-1.35-.3-2.03-.439C9.616.181,8.927.119,8.238.043A21.638,21.638,0,0,0,4.069.169,12.23,12.23,0,0,0,0,1.391l.019.145A41.868,41.868,0,0,1,8.134,1.5a78.846,78.846,0,0,1,8.077.948Z" transform="translate(302.974 -5169.412) rotate(8)" fill="#40a4e1"/>
        <path id="Path_251" data-name="Path 251" d="M.569,4.987A6.348,6.348,0,0,0,.753,3.634c.025-.423.011-.825.013-1.213C.743,2.031.741,1.656.741,1.287A4.842,4.842,0,0,1,.892.057L.842,0a2.37,2.37,0,0,0-.68,1.126A4.327,4.327,0,0,0,0,2.437,9.436,9.436,0,0,0,.5,5.011Z" transform="translate(316.592 -5193.962) rotate(8)" fill="#40a4e1"/>
        <path id="Path_250" data-name="Path 250" d="M.243,9.8A15.388,15.388,0,0,0,1.609,5.557,18.894,18.894,0,0,1,3.027,1.4Q3.282.879,3.573.376c.1-.179.2-.5-.061-.323a2.681,2.681,0,0,0-.4.423c-.228.254-.467.508-.672.782A18.349,18.349,0,0,0,1.2,3.086,10.871,10.871,0,0,0,.109,9.815Z" transform="translate(327.617 -5176.012) rotate(8)" fill="#40a4e1"/>
      </g>
      <g id="Group_224" data-name="Group 224" transform="translate(196.283 7803.512)">
        <path id="Path_244-2" data-name="Path 244" d="M15.1.041C5.016-.632,2.906,7.065,5.064,12.073c3.057,7.094,7.287,6.971-1.049,15.739C-2.138,34.281-1.5,44.469,7.9,47.391c13.138,4.087,2.167,12.33.905,18.842-2.6,13.449,7.156,14.236,23.236,16.74,16.509,2.571,27.024-3.146,35.2-15.224,6.041-8.917,8.738-17.987,2.356-24.071C60.431,34.942,51.183,44.6,53,33.509c1.089-6.639-1.373-17.928-15.308-15.613S29.633,1.011,15.1.041Z" transform="translate(302.802 -5208.703) rotate(8)" fill="#264fd5"/>
        <path id="Path_245-2" data-name="Path 245" d="M37.742,79.5,37.1,75.985l-1.29-7.034C35.294,66.624,34.666,64.322,34.1,62l-.87-3.469c-.314-1.15-.71-2.276-1.062-3.414-.735-2.268-1.425-4.554-2.2-6.807A152.378,152.378,0,0,0,17.7,22.511,107.548,107.548,0,0,0,.172,0L0,.2Q1.192,1.522,2.289,2.933c.766.9,1.487,1.846,2.2,2.789.734.928,1.419,1.894,2.092,2.869s1.385,1.911,2,2.925c1.294,1.975,2.635,3.908,3.8,5.959.6,1.014,1.223,2.009,1.837,3.01l1.705,3.089,1.7,3.086L19.2,29.812l1.575,3.147C21.3,34,21.722,35.1,22.2,36.175c.457,1.08.952,2.142,1.43,3.212l.722,1.6c.228.539.423,1.093.637,1.64L27.5,49.2c.783,2.211,1.482,4.451,2.228,6.677.357,1.116.76,2.221,1.079,3.351.3,1.136.588,2.273.908,3.4.612,2.268,1.29,4.521,1.852,6.806.468,2.3.979,4.6,1.5,6.9l.774,3.454" transform="translate(317.369 -5193.03) rotate(8)" fill="#40a4e1"/>
        <path id="Path_246-2" data-name="Path 246" d="M19.372,2.754A17.458,17.458,0,0,0,14.708.867c-.8-.239-1.61-.362-2.422-.523-.814-.13-1.638-.2-2.457-.292A25.573,25.573,0,0,0,4.853.2,14.555,14.555,0,0,0,0,1.661l.022.172A50,50,0,0,1,9.7,1.793,93.647,93.647,0,0,1,19.34,2.925Z" transform="translate(309.571 -5163.974) rotate(8)" fill="#40a4e1"/>
        <path id="Path_247-2" data-name="Path 247" d="M15.874,3.952A12.874,12.874,0,0,0,12.286,1.68,18.445,18.445,0,0,0,10.351.932C9.693.724,9.021.567,8.351.4A19.353,19.353,0,0,0,4.2.007,11.067,11.067,0,0,0,0,.851v.175A41.47,41.47,0,0,1,7.99,2.105a78.05,78.05,0,0,1,7.828,2.012Z" transform="translate(308.673 -5181.248) rotate(8)" fill="#40a4e1"/>
        <path id="Path_248-2" data-name="Path 248" d="M.282,9.769A13.681,13.681,0,0,0,1.293,7.155c.238-.83.446-1.623.619-2.388.05-.4.175-.759.253-1.135l.127-.559a4.6,4.6,0,0,0,.147-.547A12,12,0,0,1,3.369.141L3.294,0a4.985,4.985,0,0,0-1.95,1.876A8.611,8.611,0,0,0,.352,4.4a16.4,16.4,0,0,0-.23,5.382Z" transform="translate(339.773 -5170.225) rotate(8)" fill="#40a4e1"/>
        <path id="Path_249-2" data-name="Path 249" d="M25.682,3.65a23.127,23.127,0,0,0-6.184-2.5c-1.056-.318-2.136-.48-3.21-.694-1.08-.171-2.17-.27-3.259-.389a34.221,34.221,0,0,0-6.594.2A19.342,19.342,0,0,0,0,2.2l.03.23a66.213,66.213,0,0,1,12.834-.052,124.694,124.694,0,0,1,12.773,1.5Z" transform="translate(309.837 -5146.564) rotate(8)" fill="#40a4e1"/>
        <path id="Path_251-2" data-name="Path 251" d="M.9,7.888a10.039,10.039,0,0,0,.292-2.141c.039-.669.017-1.3.021-1.919-.037-.616-.04-1.209-.04-1.792A7.658,7.658,0,0,1,1.41.091L1.331,0A3.749,3.749,0,0,0,.255,1.78,6.843,6.843,0,0,0,0,3.854,14.922,14.922,0,0,0,.784,7.925Z" transform="translate(331.374 -5185.391) rotate(8)" fill="#40a4e1"/>
        <path id="Path_250-2" data-name="Path 250" d="M.384,15.5a24.336,24.336,0,0,0,2.16-6.711A29.88,29.88,0,0,1,4.788,2.215q.4-.825.862-1.621c.163-.283.322-.8-.1-.511a4.24,4.24,0,0,0-.632.669c-.36.4-.739.8-1.063,1.237A29.019,29.019,0,0,0,1.9,4.88,17.192,17.192,0,0,0,.173,15.523Z" transform="translate(348.81 -5157.003) rotate(8)" fill="#40a4e1"/>
      </g>
    </g>
  </g>
</svg>
