<svg xmlns="http://www.w3.org/2000/svg" width="234.158" height="195.391" viewBox="0 0 234.158 195.391">
  <g id="Group_442" data-name="Group 442" transform="translate(-761.843 -3834.611)">
    <path id="Path_21897" data-name="Path 21897" d="M66.01-.458C102.466-.71,131.815,40.373,131.562,91.3s-30.011,92.425-66.468,92.677S-.71,143.151-.458,92.22,29.554-.2,66.01-.458Z" transform="matrix(1, -0.017, 0.017, 1, 811.34, 3837.365)" fill="#e8edfe"/>
    <g id="Group_440" data-name="Group 440" transform="translate(761.843 3838.153)">
      <g id="Group_410" data-name="Group 410" transform="translate(0 0)">
        <g id="Group_380" data-name="Group 380" transform="translate(71.242 117.101)">
          <rect id="Rectangle_2979" data-name="Rectangle 2979" width="72.406" height="4.62" transform="translate(4.62 0) rotate(90)" fill="#000042"/>
        </g>
        <g id="Group_381" data-name="Group 381" transform="translate(64.51 188.094)">
          <rect id="Rectangle_2980" data-name="Rectangle 2980" width="18.083" height="1.414" transform="translate(18.083 1.414) rotate(180)" fill="#000042"/>
        </g>
        <g id="Group_382" data-name="Group 382" transform="translate(22.319 52.238)">
          <path id="Path_21854" data-name="Path 21854" d="M1409.007-168.628a.235.235,0,0,1-.207-.123l-4.724-8.764a.236.236,0,0,1,.1-.318.239.239,0,0,1,.318.1l4.724,8.764a.236.236,0,0,1-.1.318A.243.243,0,0,1,1409.007-168.628Z" transform="translate(-1404.048 177.858)" fill="#000042"/>
        </g>
        <g id="Group_388" data-name="Group 388" transform="translate(0 139.652)">
          <g id="Group_383" data-name="Group 383" transform="translate(2.672 0)">
            <rect id="Rectangle_2981" data-name="Rectangle 2981" width="21.405" height="4.513" transform="translate(21.405 4.513) rotate(180)" fill="#000042"/>
          </g>
          <g id="Group_386" data-name="Group 386" transform="translate(0 2.934)">
            <g id="Group_384" data-name="Group 384">
              <path id="Path_21855" data-name="Path 21855" d="M1269.627,148.308l-4.369,46.922h1.545l5.736-46.7Z" transform="translate(-1265.259 -148.308)" fill="#000042"/>
            </g>
            <g id="Group_385" data-name="Group 385" transform="translate(19.469)">
              <path id="Path_21856" data-name="Path 21856" d="M1389.24,148.308l4.368,46.922h-1.544l-5.736-46.7Z" transform="translate(-1386.328 -148.308)" fill="#000042"/>
            </g>
          </g>
          <g id="Group_387" data-name="Group 387" transform="translate(2.417 35.233)">
            <rect id="Rectangle_2982" data-name="Rectangle 2982" width="21.915" height="1.979" fill="#000042"/>
          </g>
        </g>
        <g id="Group_389" data-name="Group 389" transform="translate(67.391 48.419)">
          <path id="Path_21857" data-name="Path 21857" d="M1684.329-176.464l.551-1.213h13.666l11.3-28.03,1.741.629L1700.4-176.464Z" transform="translate(-1684.329 205.708)" fill="#0b42f5"/>
        </g>
        <g id="Group_403" data-name="Group 403" transform="translate(4.474)">
          <g id="Group_390" data-name="Group 390" transform="translate(3.644 121.367)">
            <path id="Path_21858" data-name="Path 21858" d="M1338.039,17.8s33.3,12.326,34.6,14-5.661,29.608-6.791,31.871-1.224,8.584-1.644,10.335a5.9,5.9,0,0,1-1.93,2.918l-8.256-1.874,6.032-33.2s-38.121-5.809-41.211-7.258c-4.7-2.2-2.66-12.323-2.66-12.323l18.715-5.909Z" transform="translate(-1315.741 -16.357)" fill="#1a1e2a"/>
          </g>
          <g id="Group_393" data-name="Group 393" transform="translate(12.909 4.486)">
            <g id="Group_391" data-name="Group 391">
              <path id="Path_21859" data-name="Path 21859" d="M1389.839-376.638c.7,5.272-.518,15.392-1.906,16.824-1.428,1.473-5.255-.444-5.255-.444l-1.743,8.82-7.577-2.648,3.928-24.571Z" transform="translate(-1373.359 378.656)" fill="#f1d7a4"/>
            </g>
            <g id="Group_392" data-name="Group 392" transform="translate(5.103 16.505)">
              <path id="Path_21860" data-name="Path 21860" d="M1409.095-273.041l.214-1.085c-2.111-.82-4.216-1.893-4.216-1.893A27.643,27.643,0,0,0,1409.095-273.041Z" transform="translate(-1405.093 276.019)" fill="#000042"/>
            </g>
          </g>
          <g id="Group_394" data-name="Group 394" transform="translate(0 40.067)">
            <path id="Path_21861" data-name="Path 21861" d="M1313.324-255.1c8.649,5.057,8.649,45.663,8.649,45.663s-6.874-1.746-14.059,3.834a22.158,22.158,0,0,1-14.832,4.21S1297.828-264.164,1313.324-255.1Z" transform="translate(-1293.082 255.998)" fill="#ff5e00"/>
          </g>
          <g id="Group_395" data-name="Group 395" transform="translate(52.794 136.807)">
            <path id="Path_21862" data-name="Path 21862" d="M1629.13,112.37c1.932,1.043,1.7,27.655,3.24,29.387s.652,3.23.229,5.386,2.435,7.476.462,9.041l-8.191.357-3.49-26.23Z" transform="translate(-1621.38 -112.37)" fill="#1a1e2a"/>
          </g>
          <g id="Group_396" data-name="Group 396" transform="translate(56.284 180.622)">
            <path id="Path_21863" data-name="Path 21863" d="M1643.082,385.19l1.278,8.529h14.567c-1.631-2.226-6.72-3.646-6.72-3.646l-.933-5.241Z" transform="translate(-1643.082 -384.833)" fill="#000042"/>
          </g>
          <g id="Group_397" data-name="Group 397" transform="translate(39.897 180.056)">
            <path id="Path_21864" data-name="Path 21864" d="M1543.207,381.317l-2.026,9.452h15.033s-.235-2.862-5.923-3.3l1.171-4.273Z" transform="translate(-1541.181 -381.317)" fill="#000042"/>
          </g>
          <g id="Group_398" data-name="Group 398" transform="translate(55.126 127.124)">
            <path id="Path_21865" data-name="Path 21865" d="M1636.115,152.317a.235.235,0,0,1-.229-.283c1.439-6.688,5.178-24.2,5.178-24.916a.236.236,0,0,1,.234-.236h0a.234.234,0,0,1,.234.232c.005.87-4.657,22.549-5.189,25.018A.234.234,0,0,1,1636.115,152.317Z" transform="translate(-1635.881 -126.882)" fill="#000042"/>
          </g>
          <g id="Group_399" data-name="Group 399" transform="translate(48.772 182.617)">
            <path id="Path_21866" data-name="Path 21866" d="M1596.6,401.063a.231.231,0,0,1-.168-.071.235.235,0,0,1-.029-.289c.362-.569,2.218-3.408,3.207-3.456a.471.471,0,0,1,.459.208.622.622,0,0,1,.113.51c-.2,1.094-3.128,2.865-3.461,3.064A.24.24,0,0,1,1596.6,401.063Zm3.041-3.35h-.007c-.429.022-1.4,1.174-2.208,2.311,1.062-.72,2.2-1.636,2.3-2.145a.147.147,0,0,0-.024-.135A.063.063,0,0,0,1599.644,397.714Z" transform="translate(-1596.37 -397.243)" fill="#000042"/>
          </g>
          <g id="Group_400" data-name="Group 400" transform="translate(65.159 180.295)">
            <path id="Path_21867" data-name="Path 21867" d="M1698.521,388.6a.266.266,0,0,1-.051-.005.235.235,0,0,1-.183-.219c-.018-.461-.152-4.536.848-5.394a.735.735,0,0,1,.62-.17.683.683,0,0,1,.5.389c.563,1.159-1.309,4.854-1.525,5.273A.236.236,0,0,1,1698.521,388.6Zm1.09-5.333a.252.252,0,0,0-.17.069c-.514.441-.691,2.432-.7,4.046.684-1.488,1.379-3.388,1.094-3.978a.217.217,0,0,0-.17-.132A.261.261,0,0,0,1699.611,383.27Z" transform="translate(-1698.271 -382.802)" fill="#000042"/>
          </g>
          <g id="Group_401" data-name="Group 401" transform="translate(65.174 182.767)">
            <path id="Path_21868" data-name="Path 21868" d="M1698.6,401.5a.235.235,0,0,1-.185-.379c.473-.6,2.905-3.564,4.117-2.836a.5.5,0,0,1,.278.475c-.059.9-3.167,2.311-4.118,2.721A.241.241,0,0,1,1698.6,401.5Zm3.481-2.865c-.607,0-1.717.973-2.633,1.989,1.66-.792,2.934-1.613,2.894-1.9h0a.154.154,0,0,0-.047-.038A.414.414,0,0,0,1702.085,398.637Z" transform="translate(-1698.37 -398.174)" fill="#000042"/>
          </g>
          <g id="Group_402" data-name="Group 402" transform="translate(11.496)">
            <path id="Path_21869" data-name="Path 21869" d="M1387.641-401.856a2.531,2.531,0,0,0-1.87-1.082,5.564,5.564,0,0,0-2.772.906l-7.8-3.32c-2.031-.864-4.423-1.885-6.543-.576a2.681,2.681,0,0,0-1.2,3.19,4.558,4.558,0,0,0-2.645,2.652,7.393,7.393,0,0,0-.1,3.3,68.606,68.606,0,0,0,2.734,10.234s2.047-1.849,2.77-2.6,3.331-1.141,3.331-1.141a6.885,6.885,0,0,1-1.895-2.039,2.348,2.348,0,0,1,.179-2.624,2.3,2.3,0,0,1,2.5-.39,5.77,5.77,0,0,1,2.072,1.672c.88,1,.389,1.789.543,3.116a6.909,6.909,0,0,0,1.242-4.17,12.656,12.656,0,0,0,7.276-2.352,6.247,6.247,0,0,0,2.151-1.98A2.619,2.619,0,0,0,1387.641-401.856Z" transform="translate(-1364.569 406.553)" fill="#000042"/>
          </g>
        </g>
        <g id="Group_404" data-name="Group 404" transform="translate(21.115 36.821)">
          <path id="Path_21870" data-name="Path 21870" d="M1400.166-250.819c3.317.792,9.925,12.039,13.465,18.332l-11.268,4.526S1390.937-253.024,1400.166-250.819Z" transform="translate(-1396.565 250.957)" fill="#ff8000"/>
        </g>
        <g id="Group_405" data-name="Group 405" transform="translate(28.374 64.02)">
          <path id="Path_21871" data-name="Path 21871" d="M1480.663-117.265c-.968-.068-7,1.576-7,1.576l-16.1-4.4-7.764-11.752-8.1,3.254,10.724,14.111H1484.2S1481.632-117.2,1480.663-117.265Z" transform="translate(-1441.702 131.844)" fill="#f1d7a4"/>
        </g>
        <g id="Group_406" data-name="Group 406" transform="translate(37.385 86.071)">
          <rect id="Rectangle_2983" data-name="Rectangle 2983" width="72.334" height="4.853" transform="translate(72.334 4.853) rotate(180)" fill="#000042"/>
        </g>
        <g id="Group_407" data-name="Group 407" transform="translate(18.01 38.979)">
          <path id="Path_21872" data-name="Path 21872" d="M1385.191-220.114a.235.235,0,0,1-.208-.126c-.285-.556-7-13.612-7.624-15.889-.664-2.4,2.017-4.485,2.13-4.573a.238.238,0,0,1,.329.044.236.236,0,0,1-.044.329c-.026.018-2.543,1.978-1.965,4.075.618,2.229,7.522,15.662,7.592,15.8a.238.238,0,0,1-.1.316A.251.251,0,0,1,1385.191-220.114Z" transform="translate(-1377.253 240.749)" fill="#000042"/>
        </g>
        <g id="Group_408" data-name="Group 408" transform="translate(26.679 62.391)">
          <path id="Path_21873" data-name="Path 21873" d="M1431.4-126.256a.233.233,0,0,1-.218-.146.236.236,0,0,1,.13-.305l8.257-3.317a.236.236,0,0,1,.305.13.237.237,0,0,1-.13.305l-8.257,3.317A.249.249,0,0,1,1431.4-126.256Z" transform="translate(-1431.165 130.04)" fill="#000042"/>
        </g>
        <g id="Group_409" data-name="Group 409" transform="translate(28.14 67.91)">
          <path id="Path_21874" data-name="Path 21874" d="M1451.206-98.49a.229.229,0,0,1-.187-.093L1440.3-112.695a.232.232,0,0,1,.046-.327.232.232,0,0,1,.327.046l10.724,14.112a.232.232,0,0,1-.046.327A.226.226,0,0,1,1451.206-98.49Z" transform="translate(-1440.248 113.07)" fill="#000042"/>
        </g>
      </g>
      <g id="Group_439" data-name="Group 439" transform="translate(121.995 9.251)">
        <g id="Group_437" data-name="Group 437" transform="translate(0 0)">
          <g id="Group_411" data-name="Group 411" transform="translate(67.355 3.886)">
            <path id="Path_21875" data-name="Path 21875" d="M2152.092-311.676c-.476,3.571-2.237,6.936-2.266,10.566a4.725,4.725,0,0,0,.624,2.644c1.529,2.333,5.15,2.482,7.6,2.8a22.436,22.436,0,0,0,8.4-.267,11.686,11.686,0,0,0,6.889-4.578c2.021-3.028,2.089-7.053.925-10.5s-2.136-3.689-4.542-6.421a28.05,28.05,0,0,0-5.822-5.3,12.317,12.317,0,0,0-7.47-2.1c-1.909.153-6.533,1.775-6.428,4.3.026.634.75,1.426,1.022,2a13.314,13.314,0,0,1,.817,2.208A11.567,11.567,0,0,1,2152.092-311.676Z" transform="translate(-2149.826 324.865)" fill="#000042"/>
          </g>
          <g id="Group_412" data-name="Group 412" transform="translate(51.529 34.874)">
            <path id="Path_21876" data-name="Path 21876" d="M2051.644-186.921a.132.132,0,0,1-.027,0,.234.234,0,0,1-.2-.26L2053-200.509a.226.226,0,0,1,.1-.168.224.224,0,0,1,.2-.027l4.613,1.433a.234.234,0,0,1,.154.293.234.234,0,0,1-.292.154l-4.344-1.349-1.554,13.048A.235.235,0,0,1,2051.644-186.921Z" transform="translate(-2051.41 200.717)" fill="#000042"/>
          </g>
          <g id="Group_413" data-name="Group 413" transform="translate(46.514 43.276)">
            <path id="Path_21877" data-name="Path 21877" d="M2020.226-170.057h9.247s-3.786,21.782-3.517,22.051a21.887,21.887,0,0,0,2.623,1.246h-7.459a21.879,21.879,0,0,0,2.623-1.246C2024.012-148.275,2020.226-170.057,2020.226-170.057Z" transform="translate(-2020.226 170.057)" fill="#0b42f5"/>
          </g>
          <g id="Group_419" data-name="Group 419" transform="translate(85.413 132.742)">
            <g id="Group_414" data-name="Group 414" transform="translate(2.673 0)">
              <rect id="Rectangle_2984" data-name="Rectangle 2984" width="21.405" height="4.513" transform="translate(21.405 4.513) rotate(180)" fill="#000042"/>
            </g>
            <g id="Group_417" data-name="Group 417" transform="translate(0 2.934)">
              <g id="Group_415" data-name="Group 415">
                <path id="Path_21878" data-name="Path 21878" d="M2266.486,162.86l-4.369,46.922h1.544l5.736-46.7Z" transform="translate(-2262.117 -162.86)" fill="#000042"/>
              </g>
              <g id="Group_416" data-name="Group 416" transform="translate(19.469)">
                <path id="Path_21879" data-name="Path 21879" d="M2386.1,162.86l4.369,46.922h-1.545l-5.736-46.7Z" transform="translate(-2383.188 -162.86)" fill="#000042"/>
              </g>
            </g>
            <g id="Group_418" data-name="Group 418" transform="translate(2.417 35.233)">
              <rect id="Rectangle_2985" data-name="Rectangle 2985" width="21.915" height="1.979" fill="#000042"/>
            </g>
          </g>
          <g id="Group_420" data-name="Group 420" transform="translate(23.378 125.828)">
            <path id="Path_21880" data-name="Path 21880" d="M1879.722,150.282c.714-.017,63.547-39.911,63.547-39.911l-11.6-8.748s-34.914,24.458-39.613,27.073-6.012-.269-7.774,3.424-.773,6.279-4.017,5.721-3.911,4.621-3.911,4.621Z" transform="translate(-1876.354 -101.623)" fill="#2b2c3e"/>
          </g>
          <g id="Group_421" data-name="Group 421" transform="translate(4.696 166.667)">
            <path id="Path_21881" data-name="Path 21881" d="M1778.858,355.578l-7.591,5.709s-10.3-4.47-11.062-4.044,12.94,13.976,12.94,13.976l9.08-7.82Z" transform="translate(-1760.176 -355.578)" fill="#000042"/>
          </g>
          <g id="Group_422" data-name="Group 422" transform="translate(12.671 162.119)">
            <path id="Path_21882" data-name="Path 21882" d="M1812.846,338.757l-.192-.446c-.4-.927-3.882-9.1-2.607-10.7a.869.869,0,0,1,.9-.291c1.053.2,1.613,3.863,1.9,6.948.219-2.284.667-4.812,1.583-5.458a.9.9,0,0,1,.843-.121,1.038,1.038,0,0,1,.64.64c.823,2.1-2.684,8.716-2.834,9Zm2.11-9.652a.444.444,0,0,0-.261.09c-1.082.764-1.472,5.368-1.567,8,1.123-2.273,2.88-6.333,2.346-7.7a.59.59,0,0,0-.358-.369A.457.457,0,0,0,1814.956,329.1Zm-4.238-1.337a.354.354,0,0,0-.305.135c-.742.931.742,5.507,2.157,8.994-.263-4.571-.929-8.97-1.708-9.115A.73.73,0,0,0,1810.718,327.768Z" transform="translate(-1809.768 -327.301)" fill="#000042"/>
          </g>
          <g id="Group_423" data-name="Group 423" transform="translate(54.907 169.883)">
            <path id="Path_21883" data-name="Path 21883" d="M2081.875,384.816l-.439-.207c-.912-.431-8.923-4.269-9.021-6.312a.872.872,0,0,1,.485-.812c.919-.554,3.759,1.832,6.012,3.964-1.344-1.859-2.677-4.054-2.416-5.143a.9.9,0,0,1,.554-.646,1.033,1.033,0,0,1,.9.057c2,1.031,3.739,8.316,3.812,8.626Zm-8.572-6.966a.32.32,0,0,0-.163.038c-.241.144-.263.291-.26.388.059,1.189,4.2,3.644,7.56,5.328C2077.432,380.554,2074.256,377.85,2073.3,377.85Zm4.13-1.8a.526.526,0,0,0-.208.042.432.432,0,0,0-.274.322c-.309,1.287,2.439,5,4.107,7.045-.655-2.448-2.017-6.657-3.319-7.327A.661.661,0,0,0,2077.434,376.052Z" transform="translate(-2072.414 -375.582)" fill="#000042"/>
          </g>
          <g id="Group_424" data-name="Group 424" transform="translate(50.687 114.464)">
            <path id="Path_21884" data-name="Path 21884" d="M2082.841,33.325s-35.257,13.724-36.519,15.666,5.691,19.793,8.166,22.856c1.34,1.659-1.414,4.024-.113,6.153,3.169,5.188.7,5.143,3.245,7.847l8.093-2.506-3.236-28.356s28.288-4.111,36.293-5.613,4.042-18.413,4.042-18.413Z" transform="translate(-2046.171 -30.959)" fill="#2b2c3e"/>
          </g>
          <g id="Group_425" data-name="Group 425" transform="translate(55.188 166.847)">
            <path id="Path_21885" data-name="Path 21885" d="M2091.325,372.426,2089.2,356.7l-8.093,2.506,1.172,8.408c-2.4.819-8.12,4.814-8.12,4.814Z" transform="translate(-2074.161 -356.698)" fill="#000042"/>
          </g>
          <g id="Group_426" data-name="Group 426" transform="translate(65.642 4.017)">
            <path id="Path_21886" data-name="Path 21886" d="M2139.186-320.671c.542,4.467,5.588,13.57,7.029,14.449,1.482.9,4.21-1.478,4.21-1.478l2.014,4.125,5.645-3.776-7.146-16.562S2138.655-325.052,2139.186-320.671Z" transform="translate(-2139.169 324.047)" fill="#f1d7a4"/>
          </g>
          <g id="Group_427" data-name="Group 427" transform="translate(63.967)">
            <path id="Path_21887" data-name="Path 21887" d="M2152.5-325.579c2.3,1.345.412,5.52,2.648,6.844,2.409,1.426,5.509-1.392,7.072-2.976,2.213-2.243,3.586-5.2,2.542-8.371-.9-2.721-3.372-4.017-5.9-4.984-4.288-1.637-7.992-3.741-10.73-7.547-1.034-1.437-1.553-3.018-2.949-4.085a11.678,11.678,0,0,0-5.732-2.284c-4.134-.448-10.606,2.317-10.687,7.188a4.014,4.014,0,0,0,1.961,3.735c2.114,1.02,3.994.478,5.6-1.232.14,1.181.455,5.6,7.4,6.737C2149.345-331.9,2147.46-328.529,2152.5-325.579Z" transform="translate(-2128.756 349.028)" fill="#000042"/>
          </g>
          <g id="Group_428" data-name="Group 428" transform="translate(76.898 17.918)">
            <path id="Path_21888" data-name="Path 21888" d="M2209.571-234.314l-.406-.844c1.555-1.12,3.052-2.445,3.052-2.445A23.377,23.377,0,0,1,2209.571-234.314Z" transform="translate(-2209.165 237.603)" fill="#1d71d3"/>
          </g>
          <g id="Group_429" data-name="Group 429" transform="translate(74.222 32.499)">
            <path id="Path_21889" data-name="Path 21889" d="M2205.663-180.988s-3.772-12.96-5.283-15.647-7.43-2.576-7.821-7.49c-.261-3.285,1.239-9.792,2.262-13.744a8.723,8.723,0,0,1,3.67-5.11h0a8.719,8.719,0,0,1,11.244,1.39,47.363,47.363,0,0,1,8.76,13.33c4.3,10.539,7.14,24.9,7.14,24.9Z" transform="translate(-2192.529 224.422)" fill="#f70f47"/>
          </g>
          <g id="Group_430" data-name="Group 430" transform="translate(28.051 181.112)">
            <rect id="Rectangle_2986" data-name="Rectangle 2986" width="18.701" height="1.194" transform="translate(0 0)" fill="#000042"/>
          </g>
          <g id="Group_431" data-name="Group 431" transform="translate(65.962 102.33)">
            <path id="Path_21890" data-name="Path 21890" d="M2143.168,96.252a.234.234,0,0,1-.232-.2l-1.773-12.512a.236.236,0,0,1,.112-.234l22.857-13.622a.235.235,0,1,1,.241.4l-22.723,13.541,1.752,12.358a.235.235,0,0,1-.2.265A.2.2,0,0,1,2143.168,96.252Z" transform="translate(-2141.16 -69.651)" fill="#000042"/>
          </g>
          <g id="Group_432" data-name="Group 432" transform="translate(53.854 132.596)">
            <path id="Path_21891" data-name="Path 21891" d="M2071.018,230.212a.235.235,0,0,1-.212-.133l-4.915-10.352a.235.235,0,0,1,.424-.2l4.915,10.352a.236.236,0,0,1-.111.313A.249.249,0,0,1,2071.018,230.212Z" transform="translate(-2065.869 -219.391)" fill="#000042"/>
          </g>
          <g id="Group_433" data-name="Group 433" transform="translate(84.324 95.82)">
            <path id="Path_21892" data-name="Path 21892" d="M2255.576,72.8a.222.222,0,0,1-.112-.029.232.232,0,0,1-.093-.316l1.461-2.68a.233.233,0,0,1,.41.223l-1.461,2.68A.232.232,0,0,1,2255.576,72.8Z" transform="translate(-2255.343 -69.654)" fill="#000042"/>
          </g>
          <g id="Group_434" data-name="Group 434" transform="translate(35.013 107.696)">
            <rect id="Rectangle_2987" data-name="Rectangle 2987" width="74.611" height="4.778" transform="translate(4.778 0) rotate(90)" fill="#000042"/>
          </g>
          <g id="Group_435" data-name="Group 435" transform="translate(0 74.22)">
            <rect id="Rectangle_2988" data-name="Rectangle 2988" width="74.804" height="4.778" transform="translate(0 0)" fill="#000042"/>
          </g>
          <g id="Group_436" data-name="Group 436" transform="translate(60.719 34.989)">
            <path id="Path_21893" data-name="Path 21893" d="M2123.351-204.61l-13.919,19.533a4.7,4.7,0,0,0,2.436,7.215h3.588l17.468-18.984a6.174,6.174,0,0,0-.132-8.5h0A6.174,6.174,0,0,0,2123.351-204.61Z" transform="translate(-2108.556 207.202)" fill="#cf0e3d"/>
          </g>
        </g>
        <g id="Group_438" data-name="Group 438" transform="translate(76.241 44.772)">
          <path id="Path_21894" data-name="Path 21894" d="M2205.318-145.7a.231.231,0,0,1-.161-.064.234.234,0,0,1-.009-.331c.073-.077,7.39-7.886,10.673-11.512a.236.236,0,0,1,.331-.016.236.236,0,0,1,.016.331c-3.286,3.629-10.6,11.44-10.679,11.519A.238.238,0,0,1,2205.318-145.7Z" transform="translate(-2205.084 157.686)" fill="#fcfff8"/>
        </g>
      </g>
    </g>
  </g>
</svg>
