<svg xmlns="http://www.w3.org/2000/svg" xmlns:xlink="http://www.w3.org/1999/xlink" viewBox="0 0 42 75" version="1.1" x="0px" y="0px"><title>054 - contact form</title><desc>Created with Sketch.</desc><g stroke="none" stroke-width="1" fill="none" fill-rule="evenodd"><g fill="#000000" fill-rule="nonzero"><path d="M39,0 L3,0 C1.34314575,-1.01453063e-16 0,1.34314575 0,3 L0,57 C0,58.6568542 1.34314575,60 3,60 L39,60 C40.6568542,60 42,58.6568542 42,57 L42,3 C42,1.34314575 40.6568542,1.01453063e-16 39,0 Z M3,2 L39,2 C39.5522847,2 40,2.44771525 40,3 L40,12 L2,12 L2,3 C2,2.44771525 2.44771525,2 3,2 Z M39,58 L3,58 C2.44771525,58 2,57.5522847 2,57 L2,14 L40,14 L40,57 C40,57.5522847 39.5522847,58 39,58 Z"/><path d="M7,10 C8.65685425,10 10,8.65685425 10,7 C10,5.34314575 8.65685425,4 7,4 C5.34314575,4 4,5.34314575 4,7 C4,8.65685425 5.34314575,10 7,10 Z M7,6 C7.55228475,6 8,6.44771525 8,7 C8,7.55228475 7.55228475,8 7,8 C6.44771525,8 6,7.55228475 6,7 C6,6.44771525 6.44771525,6 7,6 Z"/><path d="M13,8 L29,8 C29.5522847,8 30,7.55228475 30,7 C30,6.44771525 29.5522847,6 29,6 L13,6 C12.4477153,6 12,6.44771525 12,7 C12,7.55228475 12.4477153,8 13,8 Z"/><path d="M34,6 L37,6 C37.5522847,6 38,5.55228475 38,5 C38,4.44771525 37.5522847,4 37,4 L34,4 C33.4477153,4 33,4.44771525 33,5 C33,5.55228475 33.4477153,6 34,6 Z"/><path d="M34,9 L37,9 C37.5522847,9 38,8.55228475 38,8 C38,7.44771525 37.5522847,7 37,7 L34,7 C33.4477153,7 33,7.44771525 33,8 C33,8.55228475 33.4477153,9 34,9 Z"/><path d="M5,18 L15,18 C15.5522847,18 16,17.5522847 16,17 C16,16.4477153 15.5522847,16 15,16 L5,16 C4.44771525,16 4,16.4477153 4,17 C4,17.5522847 4.44771525,18 5,18 Z"/><path d="M36,20 L6,20 C4.8954305,20 4,20.8954305 4,22 L4,24 C4,25.1045695 4.8954305,26 6,26 L36,26 C37.1045695,26 38,25.1045695 38,24 L38,22 C38,20.8954305 37.1045695,20 36,20 Z M6,24 L6,22 L36,22 L36,24 L6,24 Z"/><path d="M15,30 C15.5522847,30 16,29.5522847 16,29 C16,28.4477153 15.5522847,28 15,28 L5,28 C4.44771525,28 4,28.4477153 4,29 C4,29.5522847 4.44771525,30 5,30 L15,30 Z"/><path d="M36,32 L6,32 C4.8954305,32 4,32.8954305 4,34 L4,46 C4,47.1045695 4.8954305,48 6,48 L36,48 C37.1045695,48 38,47.1045695 38,46 L38,34 C38,32.8954305 37.1045695,32 36,32 Z M6,46 L6,34 L36,34 L36,46 L6,46 Z"/><path d="M28,50 L14,50 C12.3431458,50 11,51.3431458 11,53 C11,54.6568542 12.3431458,56 14,56 L28,56 C29.6568542,56 31,54.6568542 31,53 C31,51.3431458 29.6568542,50 28,50 Z M28,54 L14,54 C13.4477153,54 13,53.5522847 13,53 C13,52.4477153 13.4477153,52 14,52 L28,52 C28.5522847,52 29,52.4477153 29,53 C29,53.5522847 28.5522847,54 28,54 Z"/></g></g><text x="0" y="75" fill="#000000" font-size="5px" font-weight="bold" font-family="'Helvetica Neue', Helvetica, Arial-Unicode, Arial, Sans-serif">Created by Ben Davis</text><text x="0" y="80" fill="#000000" font-size="5px" font-weight="bold" font-family="'Helvetica Neue', Helvetica, Arial-Unicode, Arial, Sans-serif">from the Noun Project</text></svg>