<svg xmlns:dc="http://purl.org/dc/elements/1.1/" xmlns:cc="http://creativecommons.org/ns#" xmlns:rdf="http://www.w3.org/1999/02/22-rdf-syntax-ns#" xmlns:svg="http://www.w3.org/2000/svg" xmlns="http://www.w3.org/2000/svg" xmlns:sodipodi="http://sodipodi.sourceforge.net/DTD/sodipodi-0.dtd" xmlns:inkscape="http://www.inkscape.org/namespaces/inkscape" version="1.1" x="0px" y="0px" viewBox="0 0 100 125"><g transform="translate(0,-952.36218)"><path style="text-indent:0;text-transform:none;direction:ltr;block-progression:tb;baseline-shift:baseline;color:#000000;enable-background:accumulate;" d="m 48.781207,966.76842 -31,24.00005 c -0.486,0.3736 -0.7836,0.9808 -0.7812,1.5938 l 0,44.00003 c 10e-5,1.0472 0.9528,1.9999 2,2 l 21,0 c 1.0472,-10e-5 1.9999,-0.9528 2,-2 l 0,-24 16,0 0,24 c 1e-4,1.0472 0.9528,1.9999 2,2 l 21,0 c 1.0472,-10e-5 1.9999,-0.9528 2,-2 l 0,-44.00003 c 0,-0.613 -0.2952,-1.2202 -0.7812,-1.5938 l -31,-24.00005 c -0.9111,-0.5694 -1.6958,-0.5134 -2.4376,0 z m 1.2188,4.0938 29,22.46875 0,41.03133 -17,0 0,-24 c -10e-5,-1.0472 -0.9528,-1.9999 -2,-2 l -20,0 c -1.0472,10e-5 -1.9999,0.9528 -2,2 l 0,24 -17,0 0,-41.03133 z" fill="#000000" fill-opacity="1" stroke="none" marker="none" visibility="visible" display="inline" overflow="visible"/></g><text x="0" y="115" fill="#000000" font-size="5px" font-weight="bold" font-family="'Helvetica Neue', Helvetica, Arial-Unicode, Arial, Sans-serif">Created by Galaxicon</text><text x="0" y="120" fill="#000000" font-size="5px" font-weight="bold" font-family="'Helvetica Neue', Helvetica, Arial-Unicode, Arial, Sans-serif">from the Noun Project</text></svg>