<svg xmlns="http://www.w3.org/2000/svg" width="111.473" height="111.691" viewBox="0 0 111.473 111.691">
  <g id="Group_443" data-name="Group 443" transform="translate(-763.885 -1430)">
    <path id="Path_273" data-name="Path 273" d="M33.865,0C15.089,0-8.759,53.092,3.237,69.633S68.424,83,77.376,61.219,52.641,0,33.865,0Z" transform="translate(826.028 1541.691) rotate(-142)" fill="#a3b4ef" opacity="0.15"/>
    <path id="Path_277" data-name="Path 277" d="M-957.449-4891.857l7.394-14.259,2.261-4.165,7.37,5.8,5.434-9.513,4.639,3.711,7.436-14.807" transform="translate(657.118 6480.161) rotate(13)" fill="none" stroke="#0ee5c7" stroke-linecap="round" stroke-linejoin="round" stroke-width="1.5"/>
    <g id="analysis" transform="translate(824.46 1464.309)">
      <g id="Group_206" data-name="Group 206" transform="translate(0 0.08)">
        <g id="Group_205" data-name="Group 205">
          <path id="Path_276" data-name="Path 276" d="M36.794,8.106A20.517,20.517,0,1,0,31.671,37.82L34.148,40.3l1.16,1.16,6.607,6.607A4.3,4.3,0,0,0,48,41.979l-6.607-6.607-1.16-1.16-2.477-2.477a20.449,20.449,0,0,0,0-22.27ZM46.839,43.139a2.661,2.661,0,1,1-3.721,3.806l-.043-.043L36.469,40.3l3.764-3.764Zm-7.767-7.767-3.764,3.764-2.272-2.272c.116-.089.224-.186.338-.277s.246-.2.368-.3c.18-.151.357-.3.531-.46.089-.082.175-.164.263-.246q.5-.473.977-.977c.082-.088.164-.173.246-.263.157-.174.309-.351.46-.531q.154-.182.3-.368c.09-.113.188-.222.277-.337ZM35.89,31.56c-.259.361-.525.715-.807,1.055-.082.1-.17.2-.254.293q-.377.438-.778.85-.175.181-.355.355-.41.4-.85.778c-.1.082-.194.172-.293.254-.341.281-.694.548-1.055.807A18.905,18.905,0,1,1,35.89,31.56Z" transform="translate(0 -0.08)" fill="#2354f3" stroke="#2354f3" stroke-width="1"/>
        </g>
      </g>
    </g>
  </g>
</svg>
