<svg xmlns="http://www.w3.org/2000/svg" xmlns:xlink="http://www.w3.org/1999/xlink" version="1.1" x="0px" y="0px" viewBox="0 0 100 125" enable-background="new 0 0 100 100" xml:space="preserve"><path d="M86.7,45.9c-0.4-0.3-0.9-0.5-1.4-0.6c0,0,0-0.1-0.1-0.1c0.3-2.5,1.2-7.3,1.9-9.8c0.3-1.2,1.1-2.1,2.3-2.6  c-0.3,0.9-0.4,1.7-0.6,2.6c-0.5,2.8-1.1,7.8-1.2,10.4c0,0.3,0,0.5,0,0.8C87.4,46.4,87.1,46.1,86.7,45.9z M2.6,30.9  c-0.9,0.8-1.4,2-1.2,3.2l2.5,24.5l0.1,0.9c0.5,3.1,1.9,5.6,4,7.9l14.5,17.4l0.3,8c0,0.7,0.6,1.3,1.3,1.3l15.2,0.1  c0.7,0,1.3-0.6,1.3-1.3l0.5-9.7c0.1-1,0.2-2,0.2-2.8l0,0h0c0-1-0.1-1.7-0.1-1.7c-0.7-3-1.8-9-9.9-14.8c-0.8-0.6-1.9-1.7-2.5-2.4  l-9-11.6c-0.9-1.6-3.2-2.1-4.9-1.1c-1.7,1-2.2,3.3-1.3,4.8l8.7,14.1c0.3,0.5,0.1,1.1-0.4,1.3c-0.4,0.2-1,0.1-1.2-0.3l-0.4-0.5  c0,0-6.6-9-9.8-16.1c-0.6-1.3-0.9-2.6-1-4c0-0.2,0-0.5,0-0.7c-0.1-3.2-0.6-7.8-1.2-11c-0.2-0.9-0.6-4.2-1.6-5.3  C5.6,29.7,3.8,30,2.6,30.9z M12.8,35.4c0.7,2.5,1.5,7.3,1.9,9.8c0,0,0,0.1-0.1,0.1c-0.5,0.2-0.9,0.4-1.4,0.6c-0.4,0.2-0.7,0.5-1,0.7  c0-0.3,0-0.5,0-0.8c-0.1-2.7-0.7-7.6-1.2-10.4c-0.1-0.8-0.3-1.7-0.6-2.6C11.8,33.3,12.5,34.2,12.8,35.4z M17.7,38.9  c0.4,1.5,1.5,4.8,1.7,6.4c-0.7-0.3-1.4-0.4-2.2-0.4c0-0.1,0-0.2,0-0.3l-0.2-1.2c-0.2-1.8-1.3-5.1-1.7-7  C16.6,36.8,17.3,37.7,17.7,38.9z M97.4,30.9c0.9,0.8,1.4,2,1.2,3.2l-2.5,24.5l-0.1,0.9c-0.5,3.1-1.9,5.6-4.1,7.9L77.4,84.8l-0.3,8  c0,0.7-0.6,1.3-1.3,1.3l-15.2,0.1c-0.7,0-1.3-0.6-1.3-1.3l-0.5-9.7c-0.1-1-0.2-2-0.2-2.8v0c0-1,0.1-1.7,0.1-1.7  c0.7-3,1.8-9,9.9-14.8c0.8-0.6,1.9-1.7,2.5-2.4l9-11.6c0.9-1.6,3.2-2.1,4.9-1.1c1.7,1,2.2,3.3,1.3,4.8l-8.7,14.1  c-0.3,0.5-0.1,1.1,0.4,1.3c0.4,0.2,1,0.1,1.2-0.3l0.4-0.5c0,0,6.6-9,9.8-16.1c0.6-1.3,0.9-2.6,1-4c0-0.2,0-0.5,0-0.7  c0.1-3.2,0.6-7.8,1.2-11c0.2-0.9,0.6-4.2,1.6-5.3C94.4,29.7,96.2,30,97.4,30.9z M82.8,44.6c0,0.1,0,0.2,0,0.3  c-0.7,0-1.5,0.2-2.2,0.4c0.2-1.6,1.3-4.9,1.7-6.4c0.3-1.2,1-2.1,2.3-2.5c-0.4,1.8-1.4,5.2-1.7,7L82.8,44.6z M24.4,33.9  C24.4,19.8,35.9,8.3,50,8.3V6.1c0-0.2,0.3-0.4,0.5-0.2l6,4.1c0.2,0.1,0.2,0.4,0,0.5l-6,4.1c-0.2,0.1-0.5,0-0.5-0.2v-2.2  c-12,0-21.8,9.8-21.8,21.8c0,6.9,3.4,13.5,9,17.6L35,54.6C28.4,49.8,24.4,42.1,24.4,33.9z M37.7,44.2l2,2c0.4,0.4,1.1,0.4,1.5,0  l1.7-1.7c1.4,0.9,2.9,1.6,4.6,1.9v2.4c0,0.6,0.5,1.1,1.1,1.1h2.9c0.6,0,1.1-0.5,1.1-1.1v-2.4c1.7-0.3,3.2-1,4.6-1.9l1.7,1.7  c0.4,0.4,1.1,0.4,1.5,0l2-2c0.4-0.4,0.4-1.1,0-1.5L60.7,41c0.9-1.4,1.6-2.9,1.9-4.6H65c0.6,0,1.1-0.5,1.1-1.1v-2.9  c0-0.6-0.5-1.1-1.1-1.1h-2.4c-0.3-1.7-1-3.3-1.9-4.6l1.7-1.7c0.4-0.4,0.4-1.1,0-1.5l-2-2c-0.4-0.4-1.1-0.4-1.5,0l-1.7,1.7  c-1.4-0.9-2.9-1.6-4.6-1.9v-2.4c0-0.6-0.5-1.1-1.1-1.1h-2.9c-0.6,0-1.1,0.5-1.1,1.1v2.4c-1.7,0.3-3.2,1-4.6,1.9l-1.7-1.7  c-0.4-0.4-1.1-0.4-1.5,0l-2,2c-0.4,0.4-0.4,1.1,0,1.5l1.7,1.7c-0.9,1.4-1.6,2.9-1.9,4.6H35c-0.6,0-1.1,0.5-1.1,1.1v2.9  c0,0.6,0.5,1.1,1.1,1.1h2.4c0.3,1.7,1,3.2,1.9,4.6l-1.7,1.7C37.2,43.1,37.2,43.8,37.7,44.2z M50,28.1c3.2,0,5.8,2.6,5.8,5.8  c0,3.2-2.6,5.8-5.8,5.8c-3.2,0-5.8-2.6-5.8-5.8C44.2,30.7,46.8,28.1,50,28.1z M50,59.5L50,59.5l0,2.2c0,0.2-0.3,0.4-0.5,0.2l-6-4.1  c-0.2-0.1-0.2-0.4,0-0.5l6-4.1c0.2-0.1,0.5,0,0.5,0.2v2.2h0c12,0,21.8-9.8,21.8-21.8c0-6.9-3.4-13.5-9-17.6l2.2-3.1  c6.6,4.8,10.6,12.5,10.6,20.7C75.6,48,64.1,59.5,50,59.5z"/><text x="0" y="115" fill="#000000" font-size="5px" font-weight="bold" font-family="'Helvetica Neue', Helvetica, Arial-Unicode, Arial, Sans-serif">Created by Gregor Cresnar</text><text x="0" y="120" fill="#000000" font-size="5px" font-weight="bold" font-family="'Helvetica Neue', Helvetica, Arial-Unicode, Arial, Sans-serif">from the Noun Project</text></svg>